<svg width="570" height="190" viewBox="0 0 570 190" xmlns="http://www.w3.org/2000/svg">
<title>ESCWA</title>
<style type="text/css">
	.st1{fill:none;stroke:#3A8DDE;stroke-width:2.5559;stroke-miterlimit:10;}
	.st3{fill:#5FBA46;}
	.st4{fill:#00699D;}
	.st5{fill:#19496B;}
	.st6{fill:#EE402A;}
	.st7{fill:#E4B632;}
	.st8{fill:#4B9E46;}
	.st9{fill:#C5212F;}
	.st10{fill:#EE402B;}
	.st11{fill:#27BCE1;}
	.st12{fill:#F8C315;}
	.st13{fill:#A21C44;}
	.st14{fill:#F16A2C;}
	.st15{fill:#DC1768;}
	.st16{fill:#F89E27;}
	.st17{fill:#C6972D;}
	.st18{fill:#417F44;}
	.st19{fill:#E8253C;}
</style>
<g>
	<g>
		<path fill="#3A8DDE" d="M136.4,102.7c0.7,0.4,1.9,0.8,2.9,0.8c2.1,0,3.4-1.4,3.4-3.4c0-1.9-1.1-3-2.7-4.2c-1.6-1.1-3.8-3-3.8-5.6
			c0-3.1,2.1-5.3,5.3-5.3c1.3,0,2.4,0.4,2.8,0.7l-0.6,2c-0.5-0.4-1.3-0.7-2.4-0.7c-2,0-2.9,1.5-2.9,2.9c0,2,1,2.8,3,4.2
			c2.4,1.7,3.5,3.6,3.5,5.8c0,3.5-2.5,5.7-5.7,5.7c-1.4,0-2.8-0.4-3.4-0.9L136.4,102.7z"/>
		<path fill="#3A8DDE" d="M147.3,84.6h2.3v7.8h0.1c0.3-0.5,0.7-1,1.2-1.3c0.5-0.3,1.1-0.5,1.9-0.5c1.8,0,3.4,1.5,3.4,5.1v9.6h-2.3V96
			c0-1.8-0.4-3.4-1.9-3.4c-1.1,0-1.9,0.8-2.2,2.3c-0.1,0.3-0.1,0.7-0.1,1.1v9.4h-2.3V84.6z"/>
		<path fill="#3A8DDE" d="M164.7,97.9c-1.2,0-4,0.2-4,3.4c0,1.9,1,2.6,1.8,2.6c1,0,1.9-0.7,2.2-2.2c0.1-0.3,0.1-0.6,0.1-0.8V97.9z
			 M165.1,105.4l-0.2-1.5h-0.1c-0.6,1.1-1.6,1.8-2.9,1.8c-2,0-3.4-1.6-3.4-4.1c0-3.6,2.9-5.2,6.2-5.3v-0.5c0-1.9-0.5-3.3-2.3-3.3
			c-0.9,0-1.7,0.3-2.4,0.7l-0.5-1.6c0.6-0.4,1.9-1,3.4-1c2.9,0,4.2,1.9,4.2,5.2v6.3c0,1.1,0,2.4,0.2,3.3H165.1z"/>
		<path fill="#3A8DDE" d="M170.1,94.6c0-1.2-0.1-2.7-0.1-3.7h2.1l0.1,2.3h0.1c0.5-1.4,1.7-2.5,3.1-2.5c0.2,0,0.3,0,0.5,0V93
			c-0.2,0-0.3,0-0.5,0c-1.5,0-2.5,1.3-2.8,3c-0.1,0.4-0.1,0.8-0.1,1.3v8h-2.3V94.6z"/>
		<path fill="#3A8DDE" d="M183.1,96.6c0.1-2.9-1.1-4.2-2.2-4.2c-1.5,0-2.3,2.2-2.4,4.2H183.1z M178.6,98.3c0,4.4,1.8,5.4,3.4,5.4
			c1,0,1.8-0.2,2.4-0.6l0.4,1.7c-0.8,0.4-2,0.7-3.2,0.7c-3.5,0-5.3-2.8-5.3-7.3c0-4.7,2-7.6,4.9-7.6c3,0,4.1,3.1,4.1,6.4
			c0,0.5,0,0.9,0,1.3H178.6z"/>
		<path fill="#3A8DDE" d="M194.1,96.4c0-0.3,0-0.6,0-1c-0.2-1.5-1-2.8-2.2-2.8c-1.9,0-2.6,2.7-2.6,5.6c0,3.1,0.8,5.5,2.5,5.5
			c0.7,0,1.7-0.4,2.2-2.5c0.1-0.3,0.1-0.6,0.1-1V96.4z M196.4,84.6v17.3c0,1,0.1,2.6,0.1,3.5h-2l-0.2-1.8h-0.1c-0.5,1-1.5,2.1-3,2.1
			c-2.5,0-4.2-2.7-4.2-7.4c0-5.2,2.1-7.6,4.4-7.6c1.1,0,2.1,0.5,2.6,1.7h0.1v-7.7H196.4z"/>
		<path fill="#3A8DDE" d="M206.6,95.1c0.3,0.1,0.5,0.1,0.9,0.1c2.3,0,3.8-1.5,3.8-4.3c0-2.1-0.9-3.9-3.4-3.9c-0.5,0-1,0.1-1.3,0.2V95.1
			z M204.2,85.5c0.9-0.2,2-0.4,3.4-0.4c1.9,0,3.4,0.4,4.5,1.5c1,1,1.5,2.4,1.5,4.2c0,1.9-0.4,3.1-1.2,4.1c-1.1,1.5-3,2.2-4.8,2.2
			c-0.4,0-0.7,0-1,0v8.3h-2.3V85.5z"/>
		<path fill="#3A8DDE" d="M215.7,94.6c0-1.2-0.1-2.7-0.1-3.7h2.1l0.1,2.3h0.1c0.5-1.4,1.7-2.5,3.1-2.5c0.2,0,0.3,0,0.5,0V93
			c-0.2,0-0.3,0-0.5,0c-1.5,0-2.5,1.3-2.8,3c-0.1,0.4-0.1,0.8-0.1,1.3v8h-2.3V94.6z"/>
		<path fill="#3A8DDE" d="M224.2,98.1c0,2.4,0.4,5.7,2.5,5.7c2,0,2.4-3.4,2.4-5.7c0-2.2-0.4-5.6-2.4-5.6
			C224.6,92.5,224.2,95.9,224.2,98.1 M231.5,98.1c0,5.6-2.6,7.5-4.8,7.5c-2.6,0-4.7-2.4-4.7-7.5c0-5.3,2.4-7.5,4.9-7.5
			C229.4,90.6,231.5,93,231.5,98.1"/>
		<path fill="#3A8DDE" d="M233.5,103c0.5,0.3,1.4,0.7,2.3,0.7c1.3,0,2.1-0.8,2.1-2.1c0-1.1-0.4-1.9-1.9-2.8c-1.9-1.2-2.9-2.5-2.9-4.1
			c0-2.3,1.7-4,4-4c1.1,0,2,0.4,2.6,0.7l-0.6,1.7c-0.5-0.4-1.2-0.6-1.9-0.6c-1.3,0-1.9,0.9-1.9,1.8c0,1,0.4,1.5,1.8,2.5
			c1.7,1.1,3,2.4,3,4.4c0,2.9-2,4.3-4.3,4.3c-1.1,0-2.2-0.3-2.9-0.8L233.5,103z"/>
		<path fill="#3A8DDE" d="M244.7,100c0,0.4,0,0.9,0.1,1.2c0.4,2.1,1.5,2.5,2.1,2.5c1.9,0,2.5-2.6,2.5-5.6c0-3-0.7-5.5-2.5-5.5
			c-1,0-2,1.3-2.1,2.6c-0.1,0.4-0.1,0.7-0.1,1.1V100z M242.4,95.4c0-2.2-0.1-3.5-0.1-4.5h2.1l0.1,1.9h0.1c0.8-1.6,1.9-2.1,3.1-2.1
			c2.5,0,4.2,2.7,4.2,7.5c0,5.4-2.2,7.5-4.5,7.5c-1.3,0-2.1-0.9-2.5-1.7h-0.1v7.2h-2.3V95.4z"/>
		<path fill="#3A8DDE" d="M260.4,96.6c0.1-2.9-1-4.2-2.2-4.2c-1.5,0-2.3,2.2-2.4,4.2H260.4z M255.8,98.3c0,4.4,1.8,5.4,3.4,5.4
			c1,0,1.8-0.2,2.4-0.6l0.4,1.7c-0.8,0.4-2,0.7-3.2,0.7c-3.5,0-5.3-2.8-5.3-7.3c0-4.7,2-7.6,4.9-7.6c3,0,4.1,3.1,4.1,6.4
			c0,0.5,0,0.9,0,1.3H255.8z"/>
		<path fill="#3A8DDE" d="M264.9,94.6c0-1.2-0.1-2.7-0.1-3.7h2.1l0.1,2.3h0.1c0.5-1.4,1.7-2.5,3.1-2.5c0.2,0,0.3,0,0.5,0V93
			c-0.2,0-0.3,0-0.5,0c-1.5,0-2.5,1.3-2.8,3c-0.1,0.4-0.1,0.8-0.1,1.3v8h-2.3V94.6z"/>
		<path fill="#3A8DDE" d="M272.2,90.9h2.3v14.5h-2.3V90.9z M274.7,87.1c0,0.9-0.5,1.5-1.4,1.5c-0.7,0-1.3-0.6-1.3-1.5
			c0-0.9,0.6-1.5,1.3-1.5C274.2,85.6,274.7,86.2,274.7,87.1"/>
		<path fill="#3A8DDE" d="M280.4,87v3.8h2.8v1.8h-2.8v8.6c0,1.9,0.7,2.4,1.5,2.4c0.4,0,0.7,0,0.9-0.1l0.1,1.8c-0.4,0.2-1,0.2-1.7,0.2
			c-0.9,0-1.7-0.2-2.3-0.9c-0.6-0.7-0.9-1.6-0.9-3.7v-8.4h-1.8v-1.8h1.8v-3.2L280.4,87z"/>
		<path fill="#3A8DDE" d="M286.6,90.9l1.9,8.3c0.3,1.1,0.4,2.1,0.6,3h0.1c0.1-0.8,0.4-1.9,0.6-3l1.7-8.4h2.3l-2.4,9.3
			c-0.9,3.7-1.9,7.2-3.6,9.4c-1,1.3-2.1,2-2.6,2.2l-0.8-2c0.7-0.4,1.4-1,2-1.8c0.6-0.7,1.1-1.7,1.3-2.4c0.1-0.4,0.1-0.5,0.1-0.7
			c0-0.2,0-0.4-0.1-0.5l-3.7-13.4H286.6z"/>
		<path fill="#3A8DDE" d="M304.3,102.2c0.2,0.1,0.5,0.1,0.7,0.1c1.9,0,3.5-1.9,3.5-7.4c0-4.1-1.1-6.7-3.4-6.7c-0.3,0-0.5,0-0.8,0.1
			V102.2z M300.4,85.5c1-0.2,2.4-0.4,4-0.4c2.5,0,4.3,0.6,5.6,1.8c1.7,1.6,2.6,4.2,2.6,8.2c0,4.1-1,7-2.8,8.5
			c-1.3,1.3-3.4,1.9-6.2,1.9c-1.2,0-2.5-0.1-3.2-0.2V85.5z"/>
		<path fill="#3A8DDE" d="M314.8,90.7h3.9v14.7h-3.9V90.7z M318.7,86.8c0,1.3-0.9,2.1-2.1,2.1c-1.1,0-2-0.9-1.9-2.1
			c0-1.3,0.9-2.1,2-2.1C317.8,84.7,318.7,85.5,318.7,86.8"/>
		<path fill="#3A8DDE" d="M328.1,96c0-0.4-0.1-0.8-0.2-1.1c-0.2-0.6-0.6-1.2-1.3-1.2c-1.4,0-2,1.9-2,4.3c0,2.7,0.8,4.1,1.9,4.1
			c0.5,0,1-0.3,1.3-1.1c0.1-0.3,0.2-0.8,0.2-1.2V96z M332.1,90.7c-0.1,1.3-0.2,2.9-0.2,4.6v8.4c0,3.1-0.6,4.9-1.8,6
			c-1.1,1-2.6,1.6-4.8,1.6c-1.3,0-2.6-0.2-3.7-0.7l0.7-3c0.7,0.3,1.7,0.6,2.8,0.6c2,0,2.8-1.3,2.8-3.6v-0.9H328
			c-0.5,0.9-1.5,1.5-2.6,1.5c-3.3,0-4.6-3.6-4.6-7.1c0-4.9,2.2-7.7,4.9-7.7c1.2,0,2.1,0.6,2.7,1.7h0.1l0.2-1.5H332.1z"/>
		<path fill="#3A8DDE" d="M334.6,95.1c0-1.6-0.1-3-0.1-4.4h3.4l0.2,1.7h0.1c0.8-1.2,2-1.9,3.6-1.9c2.8,0,3.9,2.2,3.9,5.5v9.4h-3.9v-9.2
			c0-1.3-0.3-2.4-1.4-2.4c-0.7,0-1.2,0.4-1.5,1.3c-0.1,0.3-0.2,0.8-0.2,1.3v8.9h-3.9V95.1z"/>
		<path fill="#3A8DDE" d="M348.2,90.7h3.9v14.7h-3.9V90.7z M352.1,86.8c0,1.3-0.9,2.1-2.1,2.1c-1.1,0-2-0.9-1.9-2.1
			c0-1.3,0.9-2.1,2-2.1C351.2,84.7,352.1,85.5,352.1,86.8"/>
		<path fill="#3A8DDE" d="M355.4,105.4V93.5h-2v-2.8h2v-0.8c0-1.9,1.2-5.5,6.5-5.5c1.4,0,2.7,0.2,3.5,0.6l-0.6,3.1
			c-0.7-0.2-1.6-0.5-2.8-0.5c-2.1,0-2.7,1.2-2.7,2.6v0.5h7.3v14.7h-4V93.5h-3.4v11.9H355.4z"/>
		<path fill="#3A8DDE" d="M376,96.7c0-1.9-0.5-3.4-1.6-3.4c-1.3,0-1.8,1.9-1.8,3.4H376z M372.5,99.4c0.1,2.3,1.4,3.1,3.1,3.1
			c1.1,0,2.1-0.2,2.8-0.5l0.5,2.8c-1,0.4-2.5,0.7-4,0.7c-4,0-6.2-2.6-6.2-7.2c0-4.9,2.5-7.9,5.9-7.9c3.1,0,5,2.5,5,6.9
			c0,1.1,0,1.6-0.1,2H372.5z"/>
		<path fill="#3A8DDE" d="M388.3,96.3c0-0.3,0-0.6,0-0.9c-0.1-0.9-0.6-1.7-1.4-1.7c-1.4,0-1.9,2-1.9,4.4c0,2.8,0.7,4.3,1.9,4.3
			c0.5,0,1.1-0.3,1.3-1.3c0.1-0.2,0.1-0.5,0.1-0.9V96.3z M392.3,84.6V101c0,1.4,0.1,3,0.1,4.3H389l-0.2-1.6h-0.1
			c-0.5,1-1.7,1.9-3.1,1.9c-3.1,0-4.6-3.4-4.6-7.6c0-5.1,2.2-7.6,4.7-7.6c1.3,0,2.1,0.6,2.5,1.5h0.1v-7.3H392.3z"/>
	</g>
	<polygon fill="#3A8DDE" points="399.9,85.2 403.8,85.2 403.8,102 409,102 409,105.4 399.9,105.4 	"/>
	<g>
		<path fill="#3A8DDE" d="M410.7,90.7h3.9v14.7h-3.9V90.7z M414.7,86.8c0,1.3-0.9,2.1-2.1,2.1c-1.1,0-2-0.9-1.9-2.1
			c0-1.3,0.9-2.1,2-2.1C413.8,84.7,414.7,85.5,414.7,86.8"/>
		<path fill="#3A8DDE" d="M418,105.4V93.5h-2v-2.8h2v-0.6c0-1.6,0.3-3.2,1.5-4.4c0.9-0.9,2.1-1.3,3.5-1.3c1,0,1.8,0.2,2.4,0.3l-0.4,3.1
			c-0.3-0.1-0.7-0.2-1.2-0.2c-1.3,0-1.8,1.1-1.8,2.4v0.7h2.5v2.8h-2.5v11.9H418z"/>
		<path fill="#3A8DDE" d="M432.2,96.7c0-1.9-0.5-3.4-1.6-3.4c-1.3,0-1.8,1.9-1.8,3.4H432.2z M428.7,99.4c0.1,2.3,1.4,3.1,3.1,3.1
			c1.1,0,2.1-0.2,2.8-0.5l0.5,2.8c-1,0.4-2.5,0.7-4,0.7c-4,0-6.2-2.6-6.2-7.2c0-4.9,2.5-7.9,5.9-7.9c3.1,0,5,2.5,5,6.9
			c0,1.1,0,1.6-0.1,2H428.7z"/>
	</g>
	<line class="st1" x1="123.2" y1="25.3" x2="123.2" y2="165"/>
	<g>
		<path fill="#1995D3" d="M433.7,79.7H431c-0.5,0-1-0.4-1-1V76c0-0.5,0.4-1,1-1h2.7c0.5,0,1,0.4,1,1v2.7
			C434.7,79.3,434.3,79.7,433.7,79.7"/>
		<path class="st3" d="M445.1,63.6h-3.6c-0.5,0-1-0.4-1-1v-3.6c0-0.5,0.4-1,1-1h3.6c0.5,0,1,0.4,1,1v3.6
			C446.1,63.2,445.7,63.6,445.1,63.6"/>
		<path class="st4" d="M460.7,51.6h-3.9c-0.5,0-1-0.4-1-1v-3.9c0-0.5,0.4-1,1-1h3.9c0.5,0,1,0.4,1,1v3.9
			C461.7,51.2,461.3,51.6,460.7,51.6"/>
		<path class="st5" d="M480,46h-4.2c-0.5,0-1-0.4-1-1v-4.2c0-0.5,0.4-1,1-1h4.2c0.5,0,1,0.4,1,1V45C481,45.6,480.5,46,480,46"/>
		<path class="st6" d="M498.5,47.6h-4.9c-0.5,0-1-0.4-1-1v-4.9c0-0.5,0.4-1,1-1h4.9c0.5,0,1,0.4,1,1v4.9
			C499.5,47.2,499,47.6,498.5,47.6"/>
		<path class="st7" d="M515.3,55.8h-5.6c-0.5,0-1-0.4-1-1v-5.6c0-0.5,0.4-1,1-1h5.6c0.5,0,1,0.4,1,1v5.6
			C516.3,55.3,515.9,55.8,515.3,55.8"/>
		<path class="st8" d="M528.4,69.2h-6.8c-0.6,0-1-0.4-1-1v-6.8c0-0.6,0.4-1,1-1h6.8c0.6,0,1,0.4,1,1v6.8
			C529.4,68.7,528.9,69.2,528.4,69.2"/>
		<path class="st9" d="M535.8,83.8h-7.8c-0.6,0-1-0.4-1-1V75c0-0.6,0.4-1,1-1h7.8c0.6,0,1,0.4,1,1v7.8
			C536.9,83.3,536.4,83.8,535.8,83.8"/>
		<path class="st10" d="M540.3,101h-7.8c-0.6,0-1-0.4-1-1v-7.8c0-0.6,0.4-1,1-1h7.8c0.6,0,1,0.4,1,1v7.8
			C541.3,100.6,540.9,101,540.3,101"/>
		<path class="st11" d="M536.2,117.9h-7.8c-0.6,0-1-0.4-1-1v-7.8c0-0.6,0.4-1,1-1h7.8c0.6,0,1,0.4,1,1v7.8
			C537.2,117.4,536.8,117.9,536.2,117.9"/>
		<path class="st12" d="M528.8,131.4H522c-0.6,0-1-0.4-1-1v-6.8c0-0.6,0.4-1,1-1h6.8c0.6,0,1,0.4,1,1v6.8
			C529.8,131,529.4,131.4,528.8,131.4"/>
		<path class="st13" d="M515.8,143.7h-5.6c-0.5,0-1-0.4-1-1v-5.6c0-0.5,0.4-1,1-1h5.6c0.5,0,1,0.4,1,1v5.6
			C516.8,143.3,516.3,143.7,515.8,143.7"/>
		<path class="st14" d="M498.9,151.9H494c-0.5,0-1-0.4-1-1v-4.9c0-0.5,0.4-1,1-1h4.9c0.5,0,1,0.4,1,1v4.9
			C499.9,151.5,499.4,151.9,498.9,151.9"/>
		<path class="st15" d="M479.2,153.1H475c-0.5,0-1-0.4-1-1v-4.2c0-0.5,0.4-1,1-1h4.2c0.5,0,1,0.4,1,1v4.2
			C480.2,152.7,479.8,153.1,479.2,153.1"/>
		<path class="st16" d="M460.6,147.1h-3.9c-0.5,0-1-0.4-1-1v-3.9c0-0.5,0.4-1,1-1h3.9c0.5,0,1,0.4,1,1v3.9
			C461.6,146.7,461.2,147.1,460.6,147.1"/>
		<path class="st17" d="M445.1,135.1h-3.6c-0.5,0-1-0.4-1-1v-3.6c0-0.5,0.4-1,1-1h3.6c0.5,0,1,0.4,1,1v3.6
			C446.1,134.7,445.7,135.1,445.1,135.1"/>
		<path class="st18" d="M434.2,118.1h-2.7c-0.5,0-1-0.4-1-1v-2.7c0-0.5,0.4-1,1-1h2.7c0.5,0,1,0.4,1,1v2.7
			C435.1,117.6,434.7,118.1,434.2,118.1"/>
		<path fill="#3A8DDE" d="M26.1,7.6c-2.8,2.4-4.6,5.6-6.7,8.4c-1.8,2.3-4.2,3.8-6.3,5.7c1.1-2.3,1.3-5,2.8-7.3
			C18.3,10.6,22.3,9.1,26.1,7.6 M11,16.1c1.4-1.6,3.1-2.8,5-3.3c-3.7,2.6-3.5,7.1-4.7,11c-0.4,1.4-1,2.7-1.4,4.2L10,28
			c0.6-1.6,1.7-3.2,3.1-4.5c2.6-2.5,6.6-4,7.9-7.6c-0.1,5-4.3,8.9-8.3,11.8c-1.8,1.3-3.2,3.1-4.2,5c0.2-1.4,0.2-2.5,0.1-3.9
			C8.2,24.4,8,19.4,11,16.1 M3.4,31.1c0-4.4,1.7-8.1,4.3-11.4c0.1,0,0.1-0.1,0.2-0.1C5.1,24,7.7,29.5,7.4,34.4L7,39.5
			c0.1,0,0.1,0.2,0.2,0.1c0.2-0.6,0.2-1.2,0.3-1.7c0.7-4.1,4.3-6.9,7.3-9.8c0.7-0.7,1.2-1.5,1.6-2.4c-0.3,2-0.8,4.1-1.7,6
			c-2.3,4.7-6.9,8.6-7.7,14C6.6,40.4,3.4,36.6,3.4,31.1 M1.3,37.4c0.3-1.4,0.6-2.8,1.2-4.1c-1.1,5.9,2.8,10.1,4.1,15.2
			c0.5,1.9,0.7,4,1.5,5.7c0.1,0,0.1,0,0.2-0.1c-1.9-5.4,0.9-10.4,3.7-14.7c0.7-1.1,1.1-2.4,1.4-3.7c0.3,2.5-0.2,5.3-0.7,7.8
			C12,46.8,10.9,49.9,10,53c-0.6,2-0.4,4.2-0.1,6.2L9.6,59c-2.1-3.8-6.1-6.7-7.3-10.9C1.3,44.9,0.6,41,1.3,37.4 M1.1,48.9
			c0.5,6.2,7.1,9.6,10.3,14.7c0.7,1.1,1.4,2.2,2.4,3.1c-0.2-0.7-0.7-1.3-1-1.9c-1-2.2-1.5-4.7-1.2-7.4c0.3-3.2,1.6-6.1,1.1-9.5
			c2.7,5.9,1.8,13.2,3.4,19.6c0.3,1.4,1.2,2.6,1.7,4c-2.7-2-6.2-3.8-9.1-6.2c-2.8-2.2-5.3-4.9-6.6-8.3C1.1,54.6,0.9,51.7,1.1,48.9
			 M4.4,63.2c3.1,7.1,11,7.6,16.2,12c1,0.8,2,1.6,3.1,2.1l0.1-0.1c-1.2-1.1-2.5-2.4-3.4-3.7c-3-4.3-2-10.3-4.3-14.9
			c2.1,2.5,4.1,5.1,5.3,7.9c1.9,4.6,2.6,9.9,6.9,13.4c-4.7-1.6-10.1-1.2-14.4-4C9.4,73,5.3,68.4,4.4,63.2 M12.5,76.4
			c5,5.7,13.2,3.9,19.9,5.3c0.9,0.2,1.8,0.5,2.8,0.4c-0.8-0.5-1.8-0.6-2.8-0.9c-5.2-2-6-7.5-8.8-11.3c3.6,2.4,6.6,5.7,10,8.8
			c2.4,2.2,5.3,3.1,8.4,3.7c-0.7,0.3-1.7,0.2-2.5,0.4c-5.5,1.4-11.6,3.5-17.4,1.6C18.3,83.1,14.4,80.2,12.5,76.4 M68.4,92.2
			c-0.6,0.7-1.4,1.4-2.2,2c-4.8-5-10.5-10.5-15.9-10.5c-3.3,0-5.8,2.5-8.6,4.3c-3.9,2.5-9.3,3.9-13.8,2.1c-2.5-0.9-4.9-2.3-6.6-4.6
			c3.6,2.5,9,2.8,13.1,1.1c4.5-1.9,9.1-4.4,14.2-4.4C56.2,82.2,63.4,87.4,68.4,92.2"/>
		<path fill="#3A8DDE" d="M82.1,7.6c2.8,2.4,4.6,5.6,6.7,8.4c1.8,2.3,4.2,3.8,6.3,5.7c-1.1-2.3-1.3-5-2.8-7.3
			C89.9,10.6,85.9,9.1,82.1,7.6 M97.2,16.1c-1.4-1.6-3.1-2.8-5-3.3c3.7,2.6,3.5,7.1,4.7,11c0.4,1.4,1,2.7,1.4,4.2L98.2,28
			c-0.6-1.6-1.7-3.2-3.1-4.5c-2.6-2.5-6.6-4-7.9-7.6c0.1,5,4.3,8.9,8.3,11.8c1.8,1.3,3.3,3.1,4.2,5c-0.2-1.4-0.2-2.5-0.1-3.9
			C100,24.4,100.3,19.4,97.2,16.1 M104.8,31.1c0-4.4-1.7-8.1-4.3-11.4c-0.1,0-0.1-0.1-0.2-0.1c2.9,4.4,0.3,9.8,0.6,14.8l0.4,5.1
			c-0.1,0-0.1,0.2-0.2,0.1c-0.2-0.6-0.2-1.2-0.3-1.7c-0.7-4.1-4.3-6.9-7.3-9.8c-0.7-0.7-1.2-1.5-1.6-2.4c0.3,2,0.8,4.1,1.7,6
			c2.3,4.7,6.9,8.6,7.7,14C101.6,40.4,104.8,36.6,104.8,31.1 M107,37.4c-0.3-1.4-0.6-2.8-1.2-4.1c1.1,5.9-2.8,10.1-4.1,15.2
			c-0.5,1.9-0.7,4-1.5,5.7c-0.1,0-0.1,0-0.2-0.1c1.9-5.4-0.9-10.4-3.7-14.7c-0.7-1.1-1.1-2.4-1.4-3.7c-0.3,2.5,0.2,5.3,0.7,7.8
			c0.6,3.3,1.7,6.3,2.6,9.5c0.6,2,0.4,4.2,0.1,6.2l0.3-0.2c2.1-3.8,6.1-6.7,7.3-10.9C107,44.9,107.6,41,107,37.4 M107.1,48.9
			c-0.4,6.2-7.1,9.6-10.3,14.7c-0.7,1.1-1.4,2.2-2.4,3.1c0.2-0.7,0.7-1.3,1-1.9c1-2.2,1.5-4.7,1.2-7.4c-0.3-3.2-1.6-6.1-1.1-9.5
			c-2.7,5.9-1.8,13.2-3.4,19.6c-0.4,1.4-1.2,2.6-1.7,4c2.7-2,6.2-3.8,9.1-6.2c2.8-2.2,5.3-4.9,6.6-8.3
			C107.1,54.6,107.4,51.7,107.1,48.9 M103.8,63.2c-3.1,7.1-11,7.6-16.2,12c-1,0.8-2,1.6-3.1,2.1l-0.1-0.1c1.2-1.1,2.5-2.4,3.4-3.7
			c3-4.3,2-10.3,4.3-14.9c-2.1,2.5-4.1,5.1-5.3,7.9C85,71.2,84.3,76.5,80,80c4.7-1.6,10.1-1.2,14.4-4C98.8,73,102.9,68.4,103.8,63.2
			 M95.8,76.4c-5,5.7-13.2,3.9-19.9,5.3c-0.9,0.2-1.8,0.5-2.8,0.4c0.8-0.5,1.8-0.6,2.8-0.9c5.2-2,6-7.5,8.8-11.3
			c-3.6,2.4-6.6,5.7-10,8.8c-2.4,2.2-5.3,3.1-8.4,3.7c0.7,0.3,1.7,0.2,2.5,0.4c5.5,1.4,11.6,3.5,17.4,1.6
			C89.9,83.1,93.9,80.2,95.8,76.4 M39.8,92.2c0.6,0.7,1.4,1.4,2.2,2c4.8-5,10.5-10.5,15.9-10.5c3.3,0,5.8,2.5,8.6,4.3
			c3.9,2.5,9.3,3.9,13.8,2.1c2.5-0.9,4.9-2.3,6.6-4.6c-3.6,2.5-9,2.8-13.1,1.1c-4.5-1.9-9.1-4.4-14.2-4.4
			C52.1,82.2,44.9,87.4,39.8,92.2"/>
		<path fill="#3A8DDE" d="M87.9,57.9l-0.8-0.4c-1.7,3.6-4,6.8-6.8,9.6l-4.8-4.8c2.3-2.4,4.2-5.1,5.6-8.1l-0.8-0.4
			c-1.4,2.9-3.2,5.6-5.5,7.9l-4.3-4.3c1.9-1.9,3.3-4.1,4.4-6.5l-0.8-0.4c-1,2.3-2.5,4.5-4.2,6.3l-4.8-4.8c1.3-1.4,2.4-3,3.1-4.8
			l-0.8-0.4c-0.7,1.7-1.7,3.3-2.9,4.6L60.2,47c1.2-1.4,2-3.1,2.1-5h6.1c-0.1,1.7-0.4,3.2-1,4.7l0.8,0.4c0.6-1.6,1-3.4,1.1-5.2H76
			c-0.1,3-0.7,5.8-1.9,8.4l0.8,0.4c1.2-2.8,1.9-5.8,2-8.9h6.1c-0.1,4.2-1,8.2-2.7,11.8l0.8,0.4c1.8-3.8,2.8-7.9,2.8-12.2h6.8
			c-0.1,5.5-1.4,10.8-3.6,15.5L87.9,57.9c2.4-5,3.7-10.6,3.7-16.4c0-4.9-0.9-9.7-2.7-14.1l-0.8,0.4c1.7,4.2,2.6,8.6,2.7,13.3H84
			c-0.1-3.7-0.8-7.3-2.1-10.6L81,30.9c1.3,3.2,2,6.7,2,10.2h-6.1c-0.1-2.7-0.6-5.3-1.5-7.8l-0.8,0.4c0.9,2.4,1.4,4.9,1.5,7.5h-6.8
			c0-1.7-0.4-3.3-0.9-4.8l-0.8,0.4c0.5,1.4,0.8,2.9,0.8,4.4h-6.1c-0.1-1.9-0.8-3.6-2.1-5l4.3-4.3c1.3,1.4,2.4,3.1,3,4.9l0.8-0.4
			c-0.7-1.9-1.8-3.7-3.2-5.2l4.8-4.8c2,2.1,3.6,4.6,4.6,7.3l0.8-0.4c-1.1-2.8-2.7-5.3-4.8-7.6l4.3-4.3c2.7,2.8,4.7,6,6.1,9.5
			l0.8-0.4c-1.4-3.6-3.6-6.9-6.3-9.7l4.8-4.8c3.4,3.5,6,7.5,7.8,11.9l0.8-0.4c-1.9-4.6-4.6-8.8-8.3-12.5c-3.6-3.6-7.9-6.4-12.5-8.3
			l-0.3,0.8c4.4,1.8,8.4,4.4,11.9,7.8l-4.8,4.8c-2.8-2.7-6-4.8-9.6-6.2L65,14.7c3.4,1.4,6.5,3.4,9.3,6.1l-4.3,4.3
			c-2.1-2-4.5-3.6-7.2-4.7l-0.3,0.8c2.5,1,4.8,2.5,6.9,4.5l-4.8,4.8c-1.3-1.3-2.9-2.3-4.5-3l-0.3,0.8c1.6,0.6,3,1.6,4.2,2.8
			l-4.3,4.3c-1.4-1.2-3.1-2-5-2.1v-6.1c1.8,0.1,3.5,0.4,5.1,1.1l0.3-0.8c-1.7-0.7-3.5-1.1-5.4-1.2v-6.8c2.7,0.1,5.4,0.6,7.9,1.6
			l0.3-0.8c-2.6-1.1-5.3-1.6-8.2-1.7v-6.1c3.6,0.1,7.2,0.8,10.4,2.1l0.3-0.8c-3.4-1.4-7-2.1-10.8-2.2V4.9c4.6,0.1,9.1,1,13.2,2.6
			l0.3-0.8C63.7,4.9,59,4,54.1,4c-6,0-11.7,1.4-16.8,4l0.4,0.8C42.6,6.3,48,5,53.7,4.9v6.8c-4.6,0.1-8.9,1.2-12.8,3.1l0.4,0.8
			c3.8-1.9,8-2.9,12.4-3v6.1c-3.4,0.1-6.6,0.9-9.5,2.3l0.4,0.8c2.8-1.4,5.9-2.1,9.1-2.2v6.8c-2.1,0.1-4.1,0.6-6,1.4l0.4,0.8
			c1.7-0.8,3.6-1.3,5.6-1.3v6.1c-1,0.1-1.9,0.3-2.7,0.6l0.4,0.8c0.9-0.3,1.8-0.5,2.7-0.5c1.9,0,3.7,0.8,5.1,2.1
			c1.4,1.4,2.1,3.2,2.1,5.1c0,4-3.2,7.2-7.2,7.2c-1.9,0-3.7-0.8-5.1-2.1c-1.4-1.4-2.1-3.2-2.1-5.1s0.8-3.7,2.1-5.1
			c0.7-0.7,1.5-1.2,2.4-1.6L51,34.1c-0.8,0.4-1.6,0.8-2.3,1.4l-4.3-4.3c1.1-1.1,2.4-1.9,3.7-2.5l-0.4-0.8c-1.5,0.7-2.8,1.6-4,2.7
			l-4.8-4.8c1.7-1.6,3.6-2.9,5.6-3.9L44.1,21c-2.2,1.1-4.1,2.4-5.8,4.1L34,20.8c2.2-2.1,4.7-3.9,7.3-5.2l-0.4-0.8
			c-2.8,1.4-5.3,3.2-7.5,5.3l-4.8-4.8c2.8-2.7,5.9-4.9,9.2-6.6L37.3,8c-7.3,3.7-13.3,9.7-16.9,17l0.8,0.4c1.7-3.4,3.9-6.6,6.7-9.4
			l4.8,4.8c-2.2,2.3-4.1,5-5.5,7.9l0.8,0.4c1.3-2.8,3.1-5.4,5.3-7.7l4.3,4.3c-1.7,1.8-3.2,3.9-4.3,6.3l0.8,0.4c1-2.2,2.4-4.2,4.1-6
			l4.8,4.8c-1.2,1.3-2.2,2.8-2.9,4.5l0.8,0.4c0.6-1.6,1.6-3,2.8-4.3l4.3,4.3c-1.2,1.3-2,3.1-2.1,5h-6.1c0.1-1.8,0.4-3.4,1.1-5
			l-0.8-0.4c-0.7,1.7-1.1,3.5-1.2,5.5h-6.8c0.1-3,0.7-6,2-8.7L33.4,32c-1.3,2.8-2,5.9-2.1,9.1h-6.1c0.1-4.2,1-8.3,2.8-12l-0.8-0.4
			c-1.8,3.8-2.9,8-2.9,12.5h-6.8c0.1-5.5,1.4-10.9,3.7-15.7L20.4,25c-2.5,5-3.9,10.6-3.9,16.6c0,3.6,0.5,7.2,1.5,10.6l0.9-0.2
			c-0.9-3.2-1.4-6.5-1.5-9.9h6.8c0,2.8,0.5,5.6,1.3,8.3l0.9-0.2c-0.8-2.6-1.2-5.3-1.3-8h6.1c0,2.3,0.4,4.4,1.1,6.5l0.9-0.2
			c-0.6-2-1-4.1-1.1-6.3H39c0,1.6,0.3,3.2,0.9,4.7l0.9-0.2c-0.5-1.4-0.8-2.9-0.8-4.4H46c0.1,1.9,0.8,3.6,2.1,5l-4.3,4.3
			c-1.3-1.4-2.4-3.1-3-4.9l-0.9,0.2c0.7,1.9,1.8,3.7,3.2,5.3l-4.8,4.8c-2.3-2.4-4-5.3-5-8.4l-0.9,0.2c1,3.3,2.8,6.3,5.3,8.8
			l-4.3,4.3c-3.2-3.3-5.6-7.3-6.9-11.7l-0.9,0.2c1.4,4.5,3.8,8.6,7.1,12.1l-4.8,4.8c-4.2-4.3-7.3-9.6-8.9-15.2l-0.9,0.2
			c1.7,6,5,11.4,9.5,16c3.1,3.1,6.6,5.5,10.4,7.3l0.4-0.8c-3.6-1.7-6.9-4-9.8-6.9l4.8-4.8c2.5,2.4,5.3,4.3,8.4,5.7l0.4-0.8
			c-3-1.4-5.8-3.2-8.2-5.6l4.3-4.3c2,2,4.4,3.5,6.9,4.6l0.4-0.8c-2.5-1-4.7-2.5-6.7-4.4l4.8-4.8c1.5,1.5,3.3,2.5,5.3,3.2l0.5-0.8
			c-1.9-0.6-3.6-1.7-5.1-3.1l4.3-4.3c1.4,1.2,3.1,2,5,2.1v6.1c-1.5,0-2.9-0.3-4.2-0.8L49,55.8c1.5,0.5,3.1,0.8,4.7,0.9v6.8
			c-2.8-0.1-5.5-0.6-8-1.7l-0.4,0.8c2.7,1.1,5.5,1.7,8.5,1.8v6.1c-4-0.1-7.9-1-11.5-2.6l-0.4,0.8c3.7,1.7,7.8,2.6,12,2.7v6.8
			c-5.4-0.1-10.6-1.3-15.3-3.5l-0.4,0.8c5,2.4,10.5,3.7,16.2,3.7c6,0,11.7-1.4,16.9-4l-0.4-0.8c-4.8,2.4-10.3,3.9-16,3.9v-6.8
			c4.6-0.1,9-1.2,12.9-3.2l-0.4-0.8c-3.8,1.9-8,3-12.5,3.1v-6.1c3.4-0.1,6.7-0.9,9.7-2.4l-0.4-0.8c-2.8,1.4-6,2.2-9.3,2.3v-6.8
			c2.2-0.1,4.3-0.6,6.2-1.5l-0.4-0.8c-1.8,0.9-3.7,1.4-5.8,1.4v-6.1c1.8-0.1,3.6-0.8,5-2.1l4.3,4.3c-1,1-2.2,1.8-3.5,2.4l0.4,0.8
			c1.4-0.7,2.6-1.5,3.7-2.6l4.8,4.8c-1.6,1.5-3.4,2.8-5.4,3.8l0.4,0.8c2-1,4-2.4,5.7-4l4.3,4.3c-2.1,2-4.5,3.8-7.2,5.1l0.4,0.8
			c2.7-1.4,5.2-3.1,7.4-5.3l4.8,4.8c-2.7,2.6-5.7,4.8-9.1,6.5l0.4,0.8c3.5-1.8,6.8-4.1,9.6-7C83.7,65.1,86.1,61.7,87.9,57.9
			L87.9,57.9z"/>
	</g>
	<polygon fill="#3A8DDE" points="56,32.9 56,33.1 56.3,33.1 56.3,32.9 	"/>
	<rect x="55.7" y="32.5" fill="#3A8DDE" width="0.3" height="0.2"/>
	<rect x="55.2" y="32.2" transform="matrix(0.1429 -0.9897 0.9897 0.1429 15.4166 82.4343)" fill="#3A8DDE" width="0.2" height="0.3"/>
	<rect x="54.7" y="32.1" transform="matrix(0.1335 -0.9911 0.9911 0.1335 15.5864 82.2246)" fill="#3A8DDE" width="0.2" height="0.3"/>
	<rect x="52.7" y="32" fill="#3A8DDE" width="0.3" height="0.2"/>
	<rect x="52.1" y="32.3" transform="matrix(0.1429 -0.9897 0.9897 0.1429 12.7111 79.4652)" fill="#3A8DDE" width="0.2" height="0.3"/>
	<polygon fill="#3A8DDE" points="51.8,32.8 52.1,32.8 52.2,32.6 51.9,32.5 	"/>
	<polygon fill="#3A8DDE" points="51.5,32.9 51.6,33.1 51.8,33.1 51.8,32.9 	"/>
	<polygon fill="#3A8DDE" points="21.5,56.3 21.5,56.7 21.8,56.7 21.8,57.2 22.1,57.2 22,56.6 21.7,56.5 21.7,56.3 	"/>
	<polygon fill="#3A8DDE" points="23.7,58.8 23.9,59.1 24.2,59.5 24.6,59.9 24.7,59.7 24.5,59.1 24.2,58.9 24,58.4 23.4,58.1 	"/>
	<polygon fill="#3A8DDE" points="32.4,69.9 32.4,70.2 32.8,70.4 32.9,70.6 33.2,70.4 33,69.9 32.5,69.5 32.1,69.4 	"/>
	<g>
		<path fill="#3A8DDE" d="M52.9,35.3h-0.4l-0.1-0.8l0.2-0.2v-0.4h-1.3l0-0.4l0.2-0.1l-0.3-0.1L51,33.6l-0.1,0.3L50.5,34v0.2h-0.3v0.5
			l-1.1,0.9l-2.1-0.1c-0.2,0.3-0.5,0-0.5,0c-0.1-0.2-0.6,0-0.6,0c0,0.4-0.7-0.2-0.7-0.2l-1.3-1c-0.8-0.7-1.9,0.2-1.9,0.4
			c0,0.5-0.9,0.1-0.9,0.1s-0.8-0.2-0.9,0.1c-0.1,0.3-0.6,0.2-0.6,0.2l-0.1,0.2l-0.4,0.1l-0.1,0.2l-0.5,0.1l1.1,0
			c0.3,0-0.1,0.7-0.3,0.6l-0.5,0l-0.2,0.2h-0.5L38,36.8l-0.7,0c0,0-0.4,0.3-0.4,0.5c0,0.1-0.1,0.5-0.2,0.5c-0.1,0-0.3,0.3-0.3,0.5
			c0.1,0.1-0.2,0.5-0.2,0.5L36.2,39l-0.2,0.1v1l-0.5,0.3v0.5l-0.7,0.7l0.1,0.6l-0.6,0.6l0.1,0.6L34,43.6L34,43.8l-0.2,0.8l0.4,0
			c0.2-0.1,0.2,0.5,0,0.6c-0.2,0.1-0.6,0.2-0.3,0.4c0.2,0.2-0.6,0.1-0.6-0.1s-0.5-0.4-0.6-0.3c-0.1,0.1-0.3-0.3-0.3-0.3
			c-0.4-0.4-1.7,0-1.7,0l-0.2,0.6c-0.4,0.1-0.7,0.8-0.7,0.8c-0.3,0.1-0.6,0.5-0.5,0.7c0.1,0.1-0.2,0.2-0.2,0.2v0.8l-0.2,0.3l0,0.9
			c0.2,0,0.2,0.4,0.2,0.4c-0.4,0-0.3,0.5-0.3,0.5l-0.8,0.3l-0.2,0.2l-1,0l-0.3,0.3l-0.3-0.3h-1.9l-0.1-0.2L24,50.2l0-0.4l-0.6,0
			l-0.1,0.2l-0.6,0c0,0.4-0.6,1-0.7,0.8c-0.1-0.2-0.5-0.6-0.3-0.7c0.2-0.1,0.7-0.2,0.7-0.2v-0.3l-1.4,0l-0.2,0.2l-0.6,0v0.6L20,50.8
			c-0.2,0.1,0,0.5,0,0.5c0.3,0.3,0,0.7,0,0.7c-0.2,0.2,0.2,0.7,0.2,0.7C20.5,52.7,20,53,20,53c0.1,0.4,0.3,0.5,0.3,0.5
			c-0.2,0.4,0.2,0.6,0.2,0.6l0,0.7l0.3,0.2v0.4l0.2,0.3h0.6l0-1C21,54,22,53.8,22,54.1c0,0.2,0.5,0.3,0.5,0.3
			c0.1,0.6,0.7,0.9,0.9,0.3c0.2-0.6,0.3-0.2,0.5,0c0.1,0.3,0.8,0.9,0.8,0.9h0.6l0.1,0.5c0.6,0,0.8,0,1.1,0.9s1,1.1,1,1.1l0.5,0
			c0-0.5,0.5,0.1,0.5,0.3c0,0.2,1,1.1,1,1.1l1,0.2l0.9,0.8l0.7-0.1h0.3c0.2-0.7,1.1,0,1.2,0.3c0.1,0.2,0.7,0.6,0.8,0.4
			c0.1-0.2,0.5-0.1,0.6,0.5c0.1,0.6,0.3,0.5,0.3,0.5l2.2,0l0.8-0.7l1.9,0c1,0,0.4-1.4,0.2-1.4c-0.3-0.3,0.1-1.4,0.1-1.4l-2.8-2.6
			c-0.6,0-0.1-0.9-0.1-0.9c0.5-0.3-0.1-0.8-0.1-0.8c0.1-0.5-0.3-1-0.3-1c-0.7-0.5-0.5-1.3-0.5-1.3v-0.6c-0.6-0.5,0.2-0.6,0.2-0.6
			c0.3-0.5-0.2-0.8-0.2-0.8l0-0.5l-0.6-0.1L36,47.7l-1.4-2c-0.3-0.1-0.1-0.5-0.1-0.5c0.3-0.2-0.1-0.7-0.1-0.7l0-0.8l0.8-0.1l0.2-0.3
			h0.4l0-1c0.2-0.5,0.6-0.2,0.6-0.2l0.5,0l0.3-0.6l0.1-0.5L37,41c-0.5-0.3-0.2-1.3-0.2-1.3c0.7-1.1,1.6-0.5,1.6-0.5l0.5,0
			c0.8,0.5,0.1,1.5,0.1,1.5c-0.1,0.2-0.1,1-0.1,1L39,43l-0.5,0.4c-0.4,0.2-0.4,0.8,0,0.9c0.3,0,0.2,0.8-0.3,0.3
			c-0.7,0,0.4,0.6,0.1,0.5c0.7,0.3,0.5-0.3,0.5-0.3l0.9-0.7c0.3-0.3,0.9,0.6,0.9,0.7c0,0.1,1.5,0,1.5,0c0.4,0.3,0.6,1,0.6,1
			c0.4-0.5,1.3,0,0.6,0.3c0.6,0.4,0.6,0.7,0.6,0.7c0.5-0.2,0.5,0.2,0.5,0.3c0,0.1,0.2-0.6,0.2-0.6c-0.6-0.4,0.8-0.6,0.4,0.2L44.9,47
			l0.4,0.3l0,0.9c0.8-0.1,0.6-1.1,0.6-1.1l0.4-0.1c0-0.3,0.3-0.2,0.3-0.2c-0.3-1.3,0.6-1.5,0.6-1.5c0.5-0.1,0.5-1.2,0.5-1.2
			c-0.3-0.2-0.2-0.7,0.2-0.2c0.4,0.5-0.2-0.9-0.2-0.9l-0.3-0.3l-0.4,0l0-0.4h-0.7l-0.1,0.5l-0.3,0.1l-0.1-0.2l-0.1,0.4H45l0-0.5
			l0.4-0.1l0.2-0.2l0.1-0.6h0.5l0.6-0.2c0-0.7,0.4-0.5,0.4-0.5l0.2,0.2l0.3,0.3l0,0.2l-0.2,0.1l0,0.3l0.1,0.4h0.3
			c0.1-0.6,0.9-0.6,1.1-0.2l0.2-0.5c-0.5-0.3,0-0.7,0.1-0.5c0.2,0.2,0.5-0.5,0.5-0.5s0.3,0.3,0-0.1c-0.3-0.5,0.2-0.7,0.2-0.7
			c-0.1-0.5,0.5-0.4,0.5-0.4l0-0.6l-0.5,0c-0.1,0.5-0.6,0.1-0.3,0c0.2-0.1,0.5-0.3,0.5-0.3v-0.4l0.2-0.1l0-0.4H51l0.5-0.2l0.1-0.2
			l0.5,0l0.8-0.7l-0.1-0.3c-0.5,0,0-0.3,0-0.3L52.9,35.3z"/>
		<path fill="#3A8DDE" d="M37.7,42.9L37,42.9l0,0.3h0.2c0.3,0.5,0,1.8,0,1.8s-0.5,0-0.5-0.2c-0.1-0.2-0.3,0.5-0.1,0.6
			c0.2,0.1,0.7,0,0.7,0.4c0,0.4,0.3-0.3,0.3-0.3V42.9z"/>
	</g>
	<polygon fill="#3A8DDE" points="37.4,46.3 37,46.1 37,47 37.6,47.8 37.8,47.2 37.9,46.9 37.6,46.8 37.7,46.2 37.9,46.2 37.9,45.9 	"/>
	<polygon fill="#3A8DDE" points="37.7,48.3 37.7,48.6 38,48.6 38,48.2 	"/>
	<polygon fill="#3A8DDE" points="37.3,50.2 37.3,50.5 37.6,50.5 37.6,50.2 	"/>
	<g>
		<path fill="#3A8DDE" d="M38.1,49.3c0.1,0,0.2-0.1,0.2-0.2c0-0.1-0.1-0.2-0.2-0.2c-0.1,0-0.2,0.1-0.2,0.2C37.9,49.2,38,49.3,38.1,49.3
			"/>
		<path fill="#3A8DDE" d="M38.3,49.8c0.1,0,0.2,0.1,0.2,0.2s-0.1,0.2-0.2,0.2c-0.1,0-0.2-0.1-0.2-0.2S38.3,49.8,38.3,49.8"/>
		<path fill="#3A8DDE" d="M38.4,45.4c0.1,0,0.2,0.1,0.2,0.2c0,0.1-0.1,0.2-0.2,0.2c-0.1,0-0.2-0.1-0.2-0.2
			C38.2,45.5,38.3,45.4,38.4,45.4"/>
	</g>
	<polygon fill="#3A8DDE" points="50.8,42.1 50.9,41.6 50.9,41.3 51,41.1 51.5,40.9 51.5,40.1 51.3,40.1 51.2,39.9 50.8,39.8 50.7,40 
		50.6,40 50.5,40.3 50.7,40.3 50.8,40.6 50.6,40.7 50.6,40.9 50.2,41 49.6,41.6 49.5,41.9 49.3,42.2 49.1,42.8 48.3,42.8 48.2,43.5 
		48.3,44.1 49,44.4 49,44 49.3,43.9 49.3,43.5 49.5,43.2 49.7,42.9 49.8,42.6 50.1,42.4 50.6,42.3 	"/>
	<g>
		<path fill="#3A8DDE" d="M52.3,42.5v-0.5l-0.1-0.5l-0.6-0.3l-0.4,0.4l-0.1,0.5v0.3l-0.4,0.1l-0.1,1l-0.3,0.1l0,0.4L50,44.2l-0.4,0.1
			l-0.1,0.5L49.2,45l-0.2,0.5l-0.2,1.1c0,0,0.3,0.7,0.5,0.3c0.2-0.3,0.5-0.3,0.5-0.3l0.1-0.3l1,0c0.1-0.4,0.6-0.3,0.6-0.1
			c0,0.2,0.4,0,0.4,0l0.3-0.4h0.4l0-0.5l0.2-0.1v-0.7c0.6-0.2,0.5-0.8,0.5-0.8l0.2-0.2l-0.1-0.3c-0.3-0.1-0.2-0.4,0-0.3
			c0.2,0.1-0.3-0.3-0.3-0.3c-0.2,0.2-0.4-0.2-0.4-0.2H52.3z"/>
		<path fill="#3A8DDE" d="M52.9,47.1c0,0.5-0.6,0.6-0.6,0.6l-0.4-0.1l-0.2-0.2l0-0.5l0.3,0l0.1,0.2L52.9,47.1z"/>
		<path fill="#3A8DDE" d="M54.9,44.7c0.1,0.3,0.1-0.5,0.2-0.5c0.2,0,0-0.5,0-0.5l-0.7,0.5C54.9,44.2,54.9,44.5,54.9,44.7"/>
		<path fill="#3A8DDE" d="M57,42.7c0.2,0.3,0.1,0.8,0.7,1.2c0.2,0.1-0.1,0.4-0.3,0.3c-0.2-0.1-0.7-1-0.7-1v-0.5
			C56.7,42.4,56.9,42.5,57,42.7"/>
	</g>
	<polygon fill="#3A8DDE" points="57,54.4 57.1,54.5 57.2,54.7 57.4,54.2 57.2,54.2 	"/>
	<rect x="61.4" y="52.9" transform="matrix(0.8506 -0.5258 0.5258 0.8506 -18.6667 40.296)" fill="#3A8DDE" width="0.4" height="0.2"/>
	<g>
		<path fill="#3A8DDE" d="M72.4,61.2l0.3,0.2l0,0.7c0.5,0.5,1.9,0.1,1.9,0c0-0.1-0.1-1.4-0.1-1.4l-0.2-0.2l0-1c0.2-0.5-0.7-1.2-0.8-1.1
			c-0.1,0.2-0.6,0-0.6,0.2c0,0.2-0.3,0.9-0.2,1.2c0.2,0.3-0.1,0.3-0.1,0.5C72.7,60.5,72.4,61,72.4,61.2"/>
		<path fill="#3A8DDE" d="M71.6,59.7c-0.1,0.3-0.3,0.5-0.5,0.3c-0.2-0.1,0.2,0.2,0.3,0.3c0.1,0.2,0.3,0.2,0.4,0c0.1-0.2,0-0.5,0.1-0.7
			C71.9,59.5,71.6,59.5,71.6,59.7"/>
	</g>
	<rect x="69.8" y="52.6" fill="#3A8DDE" width="0.3" height="0.7"/>
	<g>
		<path fill="#3A8DDE" d="M73.8,45.2c-0.2-0.2,0.8-0.6,0.9-0.2c0.2,0.5,0,0.4-0.2,0.3C74.4,45.4,74,45.5,73.8,45.2"/>
	</g>
	<polygon fill="#3A8DDE" points="74.5,40.3 75,40.4 75,40.1 74.6,40.1 	"/>
	<polygon fill="#3A8DDE" points="73.5,40.5 73.2,40.6 73,40.5 72.9,40.7 73.2,40.9 73.2,40.9 73.3,40.9 73.5,40.7 73.5,40.8 73.8,40.7 
		73.7,40.5 73.6,40.4 	"/>
	<g>
		<path fill="#3A8DDE" d="M74.9,31.4h-0.6c0,0,0.2,0.1-0.3-0.4c-0.5-0.5-0.9,0.1-0.9,0.1l-0.6,0.1v0.6l-0.3,0.1l0,0.4l0.4,0
			c0,0,0,0.5,0.1,0.3c0.1-0.2,1.1,0,1,0.5c0,0.2,0.9,0.7,0.8,1.3c0.5,0.1,0.4,0.6,0.4,0.6l0.6,0.1l0.2-0.4l0.2,0v-0.2l-0.4-0.1
			L75.5,33l-0.3-0.2l0.1-0.3l-0.3-0.1l0.2-0.5L74.9,31.4z"/>
		<path fill="#3A8DDE" d="M76.6,35.3l-0.3,0l-0.7,0.1l-0.4,0.7c0,0,0.2,0.1,0.3,0.4c0.2,0.3,0.2,1.8-0.2,2.1c-0.5,0.3,0,0.1,0,0.1
			l-0.1,0.8c0.1,0.4,0.3,0.2,0.4,0c0.1-0.2,0.2-0.2,0.4-0.4c0.1-0.2,0.4-0.5,0.4-0.8c0-0.3,0.2-0.7,0.1-0.8
			c-0.1-0.1,0.1-0.7,0.1-0.7s0.1-0.3,0-0.6c-0.2-0.3,0-0.7,0.1-0.8L76.6,35.3z"/>
	</g>
	<polygon fill="#3A8DDE" points="77.1,36.9 77.3,36.9 77.3,36.6 77.1,36.6 	"/>
	<polygon fill="#3A8DDE" points="76.8,37.8 77,37.9 77.2,37.7 77,37.6 	"/>
	<g>
		<path fill="#3A8DDE" d="M76.7,34.9l-0.1-0.3c0,0,0-0.3,0.1-0.5c0.1-0.2-0.2-0.3-0.3-0.3c-0.1,0-0.1-0.3-0.1-0.5
			c0-0.2-0.3-0.3-0.3-0.3s-0.1-0.6-0.1-0.7c0-0.1-0.3-0.3-0.2-0.4c0.1-0.1,0.2-0.3,0.3-0.3c0.1-0.1-0.1-0.6,0.1-0.5
			c0.2,0.1,0.2,0.3,0.3,0.5c0.1,0.2,0,0.7,0.2,0.8c0.2,0.1,0,0.5,0.3,0.5c0.3,0,0.1,0.7,0.1,0.7s-0.1,0.5,0.1,0.6c0.2,0,0.1,1,0.1,1
			L76.7,34.9z"/>
		<path fill="#3A8DDE" d="M74.3,28.6c0.1,0.2,0.3,0.3,0.3,0.4c0,0.2-0.1,0.3,0.2,0.3c0.2,0,0.4,0,0.5,0.2c0.1,0.2,0.1,0.5,0,0.7
			c0,0.2,0,0.4,0.2,0.4c0.2,0,0.2,0,0.2,0.2c0,0.1,0.2-0.4,0.2-0.4c-0.2-0.2-0.3-0.5-0.3-0.5s-0.2-0.5-0.2-0.6
			c0-0.1-0.3-0.2-0.4-0.2c-0.1,0-0.3-0.4-0.3-0.4L74.3,28.6z"/>
		<path fill="#3A8DDE" d="M74.6,28.3c-0.1-0.2-0.2-0.3-0.4-0.3c-0.2-0.1-0.3-0.2-0.4-0.2c-0.2,0-0.3-0.2-0.2-0.3
			c0.1-0.2-0.1-0.3-0.1-0.4s0.1-0.2,0.3,0c0.2,0.1,0.2,0.2,0.3,0.3c0.2,0.2,0.2,0.4,0.4,0.3c0.2,0,0.3,0.3,0.4,0.2
			c0.2-0.1,0.1,0.3,0.1,0.3L74.6,28.3z"/>
		<path fill="#3A8DDE" d="M70.2,32.6c0.2,0.2-1.1,0.2-1.1,0c0-0.2,0.1-0.7,0.5-0.6c0.3,0.1,0.4-0.7,0.4-0.7s-0.3,0,0-0.1
			c0.3-0.2,0-0.4-0.1-0.5c-0.1-0.1-0.2-0.3-0.2-0.3h0.5c0.2-0.2,0.3-0.9,0.3-0.9c0.5,0.2,0.7-0.2,0.7-0.2s0.1,0.2,0.2,0.4
			c0.1,0.2-0.4,0.3-0.2,0.4c0.2,0.1,0.3,0.5,0.2,0.6c-0.1,0.1-0.5,0-0.5-0.1c0-0.2-0.2,0.2,0,0.4c0.2,0.2-0.2,0.5-0.3,0.5
			s-0.6,0.1-0.2,0.3c0.4,0.2,0.9,0.1,0.9,0.1s0.3,0,0.5,0.2c0.1,0.2,0,0.2-0.2,0.2c-0.2,0-1.1-0.1-1.1-0.1S70.1,32.5,70.2,32.6"/>
		<path fill="#3A8DDE" d="M67.8,33c0.2,0,0.6-0.1,0.7,0c0.1,0.1-0.3,0.3-0.3,0.3l-0.5,0.1C67.6,33.2,67.6,33,67.8,33"/>
		<path fill="#3A8DDE" d="M72.7,29.8c0.3-0.2,0.9-0.2,0.9-0.4c0-0.2,0.4-0.3,0.4-0.3l0.1,0.5l0.3,0.2l0,0.4c0,0,0.1-0.1-0.3,0
			c-0.4,0.1-0.2,0.3-0.2,0.3l-0.9,0L73,30.2L72.7,29.8z"/>
		<path fill="#3A8DDE" d="M71.2,27.7c0.2,0-0.1,0.9,0.5,0.8c0.6-0.1,0,0.3,0.5,0.3c0.5,0,0.3-0.3,0.5-0.6c0.2-0.3,0.1-0.4-0.2-0.5
			c-0.3-0.1-0.3-0.1-0.3-0.4c-0.1-0.3-0.4-0.4-0.4-0.4l-0.1-0.5l-0.5,0.3l-0.5,0.7C70.7,27.9,71,27.7,71.2,27.7"/>
	</g>
	<rect x="72.2" y="30.8" transform="matrix(0.4518 -0.8921 0.8921 0.4518 12.1212 81.4672)" fill="#3A8DDE" width="0.3" height="0.2"/>
	<rect x="71.8" y="30.6" fill="#3A8DDE" width="0.2" height="0.3"/>
	<polygon fill="#3A8DDE" points="71.8,25.5 71.8,25.8 72,25.8 72,25.4 	"/>
	<rect x="71.3" y="29" fill="#3A8DDE" width="0.2" height="0.2"/>
	<polygon fill="#3A8DDE" points="70.7,28.8 70.7,29 71.1,29 71.1,28.8 	"/>
	<polygon fill="#3A8DDE" points="67.4,32.6 67.6,32.7 67.7,32.5 67.5,32.4 	"/>
	<polygon fill="#3A8DDE" points="66.4,31.8 66.4,32 66.8,32 66.8,31.8 	"/>
	
		<rect x="59" y="32" transform="matrix(0.999 -4.388792e-02 4.388792e-02 0.999 -1.351 2.6401)" fill="#3A8DDE" width="0.8" height="0.2"/>
	<rect x="58.4" y="31.9" transform="matrix(0.9746 -0.2238 0.2238 0.9746 -5.6961 13.915)" fill="#3A8DDE" width="0.2" height="0.4"/>
	<polygon fill="#3A8DDE" points="58.2,32.3 58.3,32.5 58.4,32.5 58.4,32.3 	"/>
	<g>
		<path fill="#3A8DDE" d="M60.2,31.9l0,0.3l0.4,0c0,0,0.2,0.2,0.2,0.3c0,0.1,0.3,0.2,0.4,0.2c0.1,0,0.6-0.3,0.6-0.3s0.2-0.5,0-0.5
			c-0.1,0-0.5,0.3-0.5,0c0-0.2-0.5-0.1-0.5-0.1L60.2,31.9z"/>
		<path fill="#3A8DDE" d="M62.1,31.5c0,0.1-0.1,0.3,0.2,0.3c0.2,0,0.6-0.2,0.7,0.1c0,0.2,0,0.4,0.3,0.5c0.3,0.1,0.5,0.2,0.7,0.2
			c0.2,0,0.7-0.1,0.7-0.1s0.5,0.1,0.6,0.2c0.4,0.4,0.7,0.5,0.8,0.3c0.1-0.2,0-0.6-0.1-0.8c0-0.2-0.6-0.9-0.8-0.7
			c-0.2,0.2-0.2,0-0.6,0.1c-0.3,0.1-1.1,0-1.1-0.1c0-0.2-0.6-0.2-0.6-0.4s-0.4-0.3-0.3-0.1c0,0.2-0.3,0.3-0.3,0.3
			C62.3,31.1,62.1,31.5,62.1,31.5"/>
		<path fill="#3A8DDE" d="M70.8,26.5l0.3-0.8c-0.4-0.1-0.3-0.5-0.3-0.5c0-0.3-0.6-0.7-0.8-0.6c-0.2,0.1-0.1-0.8-0.1-0.8
			s0.3-0.2,0.5-0.1c0.2,0.1-1.3-1.9-1.6-1.7c-0.3,0.2-1-0.2-0.9-0.5c0-0.3-1.4-1.5-1.4-1.5S66,19.6,66,19.8c-0.1,0.2-0.2,0.4,0,0.5
			c0.2,0.1,0.2-0.2,0.5,0.1c0.3,0.3,0.8,0.6,0.6,0.8c-0.2,0.2-0.4,0.3-0.4,0.3l0.3,0.3h0.4l0.1,0.7c0,0,0.5,0.2,0.6,0.5
			c0.1,0.3,0.1,0.4,0,0.6c-0.1,0.2-0.3,0.4-0.3,0.7c0,0.3,0.3,0.4,0.3,0.4l0.3,0l0.2,0.1v0.5c0.3-0.1,0.8,0.3,0.8,0.6
			c0,0.3,0.1,0.1,0.5,0.4c0.4,0.3,0.3,0.3,0.5,0.5C70.5,27,70.7,26.9,70.8,26.5"/>
		<path fill="#3A8DDE" d="M64.6,21.3c0-0.2-0.1-0.7,0.1-0.7c0.2,0,0.1,0,0.3,0.1c0.3,0.1,0.3-0.2,0.3-0.2h0.4l0.5,0.4l-0.1,0.3l-0.4,0
			c-0.2-0.3-0.6-0.2-0.5,0.1c0.1,0.3-0.2,0.8-0.3,0.8c-0.2,0-0.6,0-0.6-0.2C64.4,21.8,64.6,21.3,64.6,21.3"/>
		<path fill="#3A8DDE" d="M64.3,20.3V20c0,0,0-0.3-0.2-0.3c-0.2,0-0.5-0.2-0.5-0.4c0.1-0.2-0.6-0.3-0.6-0.3s-0.6-0.6-0.4-0.5
			c0.2,0.1,0.1-0.3,0.1-0.3s-0.5,0.1-0.6,0c-0.1,0-0.1-0.4-0.1-0.4s-0.5-0.1-0.5,0c0,0.1,0.2,0.1,0.2,0.3c0.1,0.2,0,0.6,0.4,0.7
			c0.3,0.1,0.4,0.2,0.5,0.3c0,0.2,0.5,0.2,0.5,0.2l0.3,0.2L64.3,20.3z"/>
	</g>
	<polygon fill="#3A8DDE" points="59.8,16.3 60.2,16.3 60.1,16 59.8,16 	"/>
	<g>
		<path fill="#3A8DDE" d="M60.1,14.7c-0.4-0.3,0.5,0.2,0.5,0.2c0.3,0,0.5,0.2,0.5,0.4c0,0.1,0.4,0.1,0.4,0.1l0-0.3l-0.3-0.4L61,14.5
			c0,0-0.4,0-0.4-0.2C60.5,14.3,60.2,14.8,60.1,14.7"/>
		<path fill="#3A8DDE" d="M67,15c-0.1,0.3-0.2,0.8-0.3,0.8s-0.1,0.5-0.1,0.5s0.5,0,0.6,0c0.1,0,0.1,0.4,0.1,0.4c0.6,0,0.8,0.7,0.7,0.9
			c-0.1,0.2,0.2,0.2,0.2,0.2s0,0.6-0.1,0.8c-0.1,0.2,0.5,0.3,0.6,0.5s-0.1,1-0.2,1c-0.1,0,0.3,0.2,0.3,0.3c0,0.2,0.1,0,0.2,0.3
			c0,0.3,0.1,1,0.1,1l0.5,0c0.1-0.5,1.1-0.5,1.2-0.5c0.6,0.2,1.1,1.2,1.1,1.5c0,0.2-0.4,0.3-0.4,0.3l0.1,1.1
			c0.6,0.2,1.2,1.1,1.1,1.3c-0.1,0.2,0.5,0.1,0.5,0.1c0.1-0.7,0.7-0.5,0.8-0.2c0,0.2,0.2,0.7,0.2,0.7l0.2,0.3l0.3,0.3l0.4,0l0.1,0.2
			l0.5,0.1c0,0,0.4,0.5,0.5,0.6c0,0.1,0.6,0.1,0.8,0.1c0.2,0,0.4,0.2,0.4,0.3c0,0.2,0.3,0.5,0.3,0.5s0.4,0.1,0.5,0.3
			c0,0.2,0.2,0.5,0.2,0.5l0.4,0.3l0,0.3l0.4,0l0.1,0.5l0.7,0l0.4-0.3c0.5-0.3,0.8-0.6,0.9-0.8c0-0.2,0.1-0.7,0.5-0.6
			c0.4,0.1,0.1-0.8,0.1-0.8s-0.5-0.4-0.5-0.6c0-0.2-0.5-0.6-0.5-0.7c0-0.2-0.5-0.5-0.5-0.6c0-0.2-0.3-0.6-0.3-0.6l-0.6-0.5l-0.1-0.3
			l-0.5,0l-0.9-1.1l0-0.3l-0.3,0v-0.4l-0.3-0.2l-0.4,0l-0.8-0.9L76.3,21h-0.4l0.1-0.8c0.3-0.3,0.1-1,0.1-1s-0.5,0.3-0.8,0.2
			C75,19.3,75.4,19,75.4,19v-0.3l-0.2-0.2c0,0-0.6,0.1-0.7,0c0-0.1-0.2-0.6-0.2-0.6l0-0.7L74,17l0-0.2l-0.4,0v-0.5l-0.2-0.1
			l-0.2-0.1l0-0.5l-0.8,0l-0.3-0.4l-0.3-0.5l-0.9-0.1l-0.2-0.2l-0.4-0.1l-0.3-0.1l-0.1,0.2l-0.7,0l0,0.2C68.6,15,67.1,14.8,67,15"/>
		<path fill="#3A8DDE" d="M71,14c-0.1-0.3,0.8-0.6,0.9-0.3c0.2,0.2,0.7,0.3,0.8,1.4c0,0.4-0.7-0.4-0.7-0.4l-0.6-0.2
			C71.2,14.3,71,14.2,71,14"/>
	</g>
	<polygon fill="#3A8DDE" points="59.7,14.3 59.9,14.4 60,14.1 59.8,14 	"/>
	<g>
		<path fill="#3A8DDE" d="M57.9,10.7l-0.5-0.5V9.7l-0.2-0.2L57.1,9l-0.5-0.2l-0.5,0.2l-0.5,0.3l-0.6,0.1l-0.3,0.3L56,10l0.2,0.4
			l0.9,0.1l0.6,0.6C58.1,11.2,58.2,10.9,57.9,10.7"/>
		<path fill="#3A8DDE" d="M57.9,8.8c-0.1-0.3-0.6,0.4-0.1,0.6c0.5,0.2,1,0,1,0l0.1-0.2l1.9,0C60.9,9,61,8.8,61,8.8s0.5-0.2,0.6-0.1
			c0.2,0.1,0-0.5-0.2-0.5c-0.2,0.1-0.6,0-0.6,0h-0.7c0-0.3-0.6-0.2-0.7,0c0,0.2-0.3,0.2-0.3,0.2l-0.9,0.1
			C58.4,8.8,57.9,8.9,57.9,8.8"/>
		<path fill="#3A8DDE" d="M54.1,15.3c0.6,0.2,0.8,0,0.8-0.1c0-0.2,0.1-0.2,0.3-0.2c0.2,0,0-0.5-0.3-0.5c-0.2,0-0.5-0.1-0.5-0.3
			c0-0.2-0.4-0.7-0.5-0.3s-0.3,0.4-0.2,0.7C53.8,14.8,54,15.2,54.1,15.3"/>
		<path fill="#3A8DDE" d="M49.8,15.7c0-0.1,0.8-0.2,0.9,0c0.1,0.1,0,0.3,0.4,0.3c0.3,0,0.2,0.2,0.2,0.3c0,0.1-0.4,0.1-0.5,0
			c0-0.1-0.6-0.2-0.6-0.2S49.8,15.9,49.8,15.7"/>
	</g>
	<polygon fill="#3A8DDE" points="62.3,7.7 62.1,7.5 62,7.7 62.2,7.9 62.3,8 62.4,7.9 62.8,7.6 62.6,7.5 	"/>
	<polygon fill="#3A8DDE" points="60.5,6.8 60.3,6.6 60.2,6.8 60.5,7 60.5,7 60.6,7 61,6.7 60.9,6.5 	"/>
	<polygon fill="#3A8DDE" points="58.9,14.8 59.2,14.9 59.4,15.3 59.6,15.1 59.4,14.7 59.3,14.7 59.3,14.7 58.9,14.6 	"/>
	<g>
		<path fill="#3A8DDE" d="M46.8,25.4l0,0.4h0.6c0.2,0-0.2-0.3-0.2-0.3S46.8,25.6,46.8,25.4"/>
	</g>
	<polygon fill="#3A8DDE" points="47.5,25.4 47.7,25.6 47.9,25.4 47.7,25.2 	"/>
	<polygon fill="#3A8DDE" points="40.6,18.2 40.9,18.4 41,18.3 40.8,18 	"/>
	<polygon fill="#3A8DDE" points="51.1,67.7 51.4,67.8 51.3,67.9 51.5,68 51.7,67.9 51.8,67.7 51.6,67.7 51.2,67.5 	"/>
	<polygon fill="#3A8DDE" points="48.3,64.9 48.2,65 48.3,65.1 48.6,65.3 48.7,65.1 48.6,65 48.7,64.9 48.5,64.7 	"/>
	<g>
		<path fill="#3A8DDE" d="M76.9,57.6c0-0.2-0.3-0.3-0.3-0.3l-0.1,0.2c0,0,0,0,0.1,0l0,0.2c0,0,0,0.1,0,0.1l0.2,0.2
			C76.8,57.9,76.9,57.7,76.9,57.6L76.9,57.6z"/>
	</g>
	<polygon fill="#3A8DDE" points="76.8,56.9 77.2,56.9 77.2,56.6 76.9,56.5 	"/>
	<g>
		<path fill="#3A8DDE" d="M86,53.9c0.2-0.1,0.4-0.3,0.3,0.1c0,0.4-0.2,0.3-0.3,0.4C85.8,54.6,85.8,54,86,53.9"/>
		<path fill="#3A8DDE" d="M87.9,52.3C87.9,52.3,87.9,52.2,87.9,52.3c0-0.1,0-0.2-0.1-0.3l-0.2,0.1c0,0.1,0,0.1,0,0.2
			c0,0.1,0,0.1,0.1,0.2c0,0,0.1,0,0.2,0L87.9,52.3C87.9,52.2,87.9,52.2,87.9,52.3"/>
		<path fill="#3A8DDE" d="M87.4,52.4c0.1,0.2,0.1,0.5,0.1,0.5l0.2-0.1c0,0-0.1-0.2-0.1-0.4L87.4,52.4z"/>
		<path fill="#3A8DDE" d="M86.6,53.4l-0.2,0c0,0.2,0,0.4,0.2,0.4l0-0.2h0C86.6,53.5,86.6,53.4,86.6,53.4"/>
		<path fill="#3A8DDE" d="M85.6,48.8c0-0.1-0.1-0.1-0.1-0.2c-0.2-0.1-0.5,0.1-0.6,0.1l0.1,0.2c0.1-0.1,0.3-0.1,0.4-0.1c0,0,0,0,0,0
			L85.6,48.8z"/>
		<path fill="#3A8DDE" d="M75.1,36.5c-0.2,0.2-0.5,0.2-0.5,0.2l-0.1,0.4l-0.2,0.2c0,0,0,0.1,0,0.4c0,0.3-0.4,0.4-0.4,0.4l-0.1,0.2
			c0,0-0.9,0-1,0c-0.3-0.2-0.1-0.6,0.1-0.6c0.2,0,0-0.7,0-0.7l0.3,0c0,0,0-0.7,0.2-0.7c0.1,0,0-0.2-0.2-0.3
			c-0.2-0.1-0.3-0.5-0.5-0.5c-0.1,0-0.8,0-0.8,0l-0.1,0.2l-0.4,0.1c0,0,0,0.3,0,0.4c-0.2,0.3-1.1,0.8-0.7-0.1l0.1-0.2v-0.3l-0.7,0
			c0,0-0.3-0.1-0.3-0.3c0-0.2,0-0.3,0-0.3L68.8,34l-0.9-0.1l-0.1-0.2l-0.6-0.1c-0.7-0.3-1.3,0-1.2,0.5c0.1,0.6,0.3,0.8-0.1,0.8
			c-0.4,0-0.5-0.3-0.5-0.3s-0.3-0.1-0.3,0c0,0.2-0.1,0.5,0,0.6c0.1,0.2-0.2,0.4-0.3,0.3c-0.1-0.1-0.4-0.5-0.3-0.6
			c0.1-0.1-0.5-0.8,0.1-1c0.6-0.1,0-0.5,0.2-0.5l0.3-0.2h0.3l0.2-0.2l-0.5-0.1l-0.3,0l-0.6,0c-0.6,0.4-0.7,0.8-0.7,0.8
			c-0.3,0.6-1-0.2-0.8-0.5c0.3-0.3-0.8,0-1,0.1c-0.2,0.2-0.8,0.1-0.8,0.1c-0.1,0.3-0.6,0-0.5-0.3c0.2-0.2,0.2-0.4,0.2-0.4l-0.2,0
			l-0.2,0.4c-0.5,0-0.7,0.3-0.6,0.5c0.1,0.2-0.2,0-0.2,0.2c-0.1,0.3,0,0.3,0.3,0.4c0.2,0.1-0.1,0.1,0,0.3c0.2,0.2,0.6,0,0.3,0.3
			c-0.3,0.3-0.8,0.2-0.8,0.2c0,0.3-0.8,0.3-0.8,0.2c-0.1-0.1-0.6-0.8-0.6-0.8l-0.7,0c-0.1-0.5,0.3-0.3,0.5-0.7
			c0.2-0.4,0.2-1.1,0.2-1.1s-0.6,0-0.6,0.2c0,0.2-0.4,0.3-0.4,0.3s-0.3,0.1-0.2,0.3c0.1,0.2-0.2,0.2-0.2,0.2s0.1,0.2,0,0.3
			c-0.3,0.3-1.1,0-1.2-0.1l-0.5-0.2l-0.5-0.3l-0.5,0.2l-0.2,0.2H53l0,0.5l1,0.1l0.1,1l-0.4-0.1h-0.3l-0.1-0.2l-0.2,0v0.8l0.2,0.2
			l0.2,0.2l0.4,0l0.1,0.5l0.9,0l0.1,0.2l0.6,0l1.1,1.1l-0.1,0.3l-0.2,0.1c0.1,0.3-0.5,0.1-0.5,0.1v0.2l0.3,0l0.3,0.2l0.4-0.7
			c0.4-0.3,0.6,0.1,0.6,0.3c0,0.2-0.2,0.2-0.2,0.2v0.5l0.2,0.1c0.4,0.5-0.2,0.7-0.2,0.7l-0.1,0.4c-0.1,0.3-0.5,0.3-0.5,0.3l-0.2,0.2
			l-0.5,0.1l0.9,0.1c0.1-0.3,0.3-0.4,0.4-0.2c0.1,0.2,0.1,0.4,0.1,0.4l0.2,0l0,0.4L58,42v1.2l0.3,0.3c0.5-0.2,0.5,0.1,0.2,0.3
			c-0.2,0.2-0.1,0.8-0.1,0.8l-0.2,0.2v0.3L58,45.3v0.4c-0.4-0.2-0.8-0.1-0.9,0c-0.3-0.2-1.1-0.2-1.1,0c0.2,0.3-0.3,0.4-0.3,0.4
			l-0.3,0.3c0.2,0.4-0.2,0.4-0.2,0.4v0.7l-0.5,0.4l0,1c0,0.3,0.6,0.3,0.7,0.2c0.1-0.2,0.6,0.3,0.6,0.3h0.3l0.1-0.7l-0.2-0.1v-1.1
			l0.4-0.4c0.5-0.2,0.3,1,0.3,1.1c0,0.4,0.2,0.4,0.4,0.3c0.4-0.2,0.1,0.4-0.2,0.4c-0.3,0-0.1,0.4-0.1,0.4l0.2,0.1l-0.3,0.3l-0.3,0.3
			l-0.4-0.1l-0.5,0l-0.2-0.3l-0.3,0l0,0.5l-0.2,0.2l-0.5,0.5c0.6,0-0.1,0.4-0.2,0.4c0.3,0.1,0,0.5-0.9,0.2v0.3l-0.3,0l0.3,0.3l0.3,0
			l-0.1,0.7c0,0.5-1.2,0.2-1.4,0l0,0.7l-0.2,0l0,0.5l0,0.7l0.4-0.1v0.3l1,0l1.5-1.6l0.9-0.2c0.1-0.4,0.5,0.1,0.5,0.1
			c0.4,0,0.5,0.2,0.5,0.2l0.5,0.1c0.4,0.1,0.2,0.2,0.2,0.3c0,0.2,0.2,0.2,0.2,0.2l0.1-0.5l0.2,0l-0.2-0.3L57.3,53l-0.5-0.2
			c-0.3-0.4,0.1-0.3,0.4-0.3h0.5c0,0,0.6,0.8,0.6,1c0,0.2,0.3,0.2,0.3,0.2l0.3,0l0.1,0.3h0.3l0.1,0.2h0.7l0-0.3l-0.6-0.1l0-0.4
			L59,53.2c-0.2-0.7,0.1-0.8,0.3-0.5l0.2,0l-0.1-0.6l0.3-0.1l-0.1-0.8l-0.2-0.1v-0.3l0.9,0c-0.1-0.5,0-0.7,0-0.7h0.3l0,0.2l1.2,0.1
			l0.8-0.9c0-0.1,0.1-0.1,0-0.2c-0.1-0.1-0.3,0-0.5-0.1c-0.2-0.1,0-0.8,0-0.9c0-0.2,0.6-0.4,0.5,0c-0.1,0.3,0,0.5,0,0.5
			c0.5-0.5,0.9,0,0.9,0.2c0,0.1,0.3,0.2,0.4,0.1c0.2-0.1,0.4,0.3,0.3,0.6c-0.1,0.2-0.8,0.2-0.8,0c0-0.2-0.2-0.2-0.2,0
			c-0.1,0.1-0.4,0.2-0.6,0.1c0,0-0.1,0-0.1-0.1l-0.8,0.9l0.1,0c0.5,0.3,0.2,0.6,0.1,0.7c-0.2,0.1-0.4,0.1-0.4,0.1l-0.1,0.2l-1,0.1
			l-0.1,0.4c-0.5-0.1-0.7,0.5-0.6,0.7c0.1,0.3,0,0.5,0,0.5l0.4,0.2l0.5-0.2c0.1-0.4,0.4-0.5,0.7-0.7c0.3-0.2,0.8,0.4,0.6,0.7
			c-0.2,0.3-0.2,0.4-0.2,0.4l0,0.3l-0.4,0.2l-0.3,0.2l0,0.2h-1l-0.2,0.2l-0.5,0l-0.2,0.2l-0.3,0c0,0-0.6,0.3-0.3,0.6
			c0.2,0.3-0.9,0.3-1.2-0.2c-0.1,0.4-0.5,0-0.5,0l-0.4-0.1l0-0.6c-0.1-0.4-0.8-0.4-0.8-0.1c0,0.3-1.4,0.1-1.4,0.1L54.1,55l-0.4,0.2
			l0,0.2L53,55.5l-0.3,0.2l-0.1-0.2h-0.3l-0.3,0.4c-0.8,0-1.6,0.5-1.5,0.7c0.1,0.2-0.3,0.4-0.3,0.4L49.8,57l-0.2,0.3l-0.5,0.2
			l-0.1,0.8l-0.2,0.2v0.3l-0.3,0.1v0.2l-0.4,0l0.2,0.6l0.3,0.2c0.5,0.1,0.3,0.7,0.3,0.7l0.3,0l0.2,0.4l0.3,0.6
			c0.1,0.5,0.5,0.3,0.6,0.3c0.2,0,0.3,0.5,0.3,0.5l1.5,0c0,0-0.1,0.2,0.2,0.2c0.3,0.1,2,0.2,2.1,0c-0.1-0.3,0.9-0.4,1.4-0.1
			c0.4,0.3,1,0.1,1,0.1l0.6,0.7l0.4,0.8l0.6,0.2l0.5,0.1l0.2,0.7l0.3,0l0.1,0.4c0.4,0.3-0.1,1-0.1,1v0.8l0.3,0.2l0,0.3l0.5,0.5
			l0.6,0l1.4,1.5l1.1,0.3l0.2,0.6l0.3,0l0.2-0.2l0.9,0l0.5-0.4l0.5-0.1l4.2-3.6l-0.4-0.2v-0.8c0.7-0.5,0.7-1.4,0.1-1.5
			c-0.5-0.1-0.3-0.6,0.2-0.7l0.3-0.1V63l0.9-0.8v-0.6L69.2,60c-0.8-0.3,0-2.2,0.6-2.1c0.6,0,0-2.8,0-2.8l-0.3-0.2l0.1-0.9h-0.4
			l-0.7,0.9l-0.2,0.6c-0.1,0.8-2.4,0.7-2.5,0.5c-0.1-0.1-0.9-0.5-0.9-0.5s-0.6-0.5-0.7-0.3c-0.1,0.2-0.6-0.2-0.6-0.1
			c0,0.1-0.5-0.3-0.5-0.3l-0.8-0.3l0.6-0.1L62.6,54l1,0.5c0.1,0.2,0.6,0.1,0.6,0.1l0.2,0.2c0,0,0.3,0,0.5,0.2c0.2,0.2,1.2,0,1.2,0
			l0.3,0.2l0.4,0.2l1.2,0l0-0.7l0.2-0.2l0-0.5l0.3-0.2v-0.4l0.2-0.1l0-0.8l0.2,0v-1.8l-0.6-0.5c0,0.2-0.6,0.2-0.6,0.2
			s-0.2,0.3-0.3,0.3s0.2,0.3,0.1,0.6c-0.1,0.2-0.4,0.2-0.4,0.2l-0.6,0.2l-0.2,0.2h-0.6l-0.1-0.5l0.7-0.2l0.4-0.2l0.2-0.4
			c0-0.4,0.5-0.3,0.5-0.3s0.9-0.7,0.9-1.1c0-0.3,0.3-1.3,0.9-1.3h1c0.4-0.2,0.3-0.7,0.3-0.7l0.5-0.1l0.1,0.3c0,0,0.7,0.1,0.8,0
			c0.1-0.1,0.2-0.4,0.4-0.3c0.2,0.1,0.8-0.3,0.8-0.3c0-0.3,1-0.2,1-0.2l0.1-0.3c0,0-0.6-0.9-0.8-0.9c-0.1,0-0.7-0.5-0.8-0.3
			c-0.6-0.2-0.6-1-0.6-1l-0.2-0.5c0-0.3-0.6-1-0.7-0.9c-0.6-0.4-0.1-0.9,0-1c0.2,0,0.5-0.6,0.5-0.6l0.2-0.5l0.6-0.2l0.1-0.5l-0.3,0
			c0,0,0.4-0.7,0.6-0.7c0.2,0,1.4,0,1.6-0.1c0.1-0.1,0.3-0.7,0.3-0.8c0-0.1,0.3-0.2,0.4-0.2c0.1,0,0.4-0.3,0.5-0.5
			C75.5,37.3,75.2,36.3,75.1,36.5"/>
		<path fill="#3A8DDE" d="M54.1,50.3c0.1-0.1,0.1,0.2,0.2,0.1c0.1,0,0.2,0.2,0.1,0.2c-0.1,0-0.1,0.1-0.1,0.2c0,0.1,0,0.2-0.1,0.3
			c-0.1,0.1-0.2,0-0.3,0c-0.1-0.1-0.2-0.1-0.3-0.1c-0.1,0,0,0.2,0,0.2s-0.6,0-0.5-0.1c0.1-0.1,0.2-0.1,0.1-0.2c-0.1-0.1,0-0.1,0-0.2
			c0-0.1,0.3-0.1,0.2-0.1c-0.1-0.1,0-0.4,0.1-0.2l0.1-0.2c-0.1-0.1,0-0.1-0.2-0.2c-0.2-0.1,0-0.4,0-0.4l0-0.2
			c0.1-0.3,0.6-0.3,0.7-0.1c0,0.3,0,0.4,0,0.4l0.2,0.1c0,0,0,0.2-0.2,0.2c-0.1,0,0,0.1-0.1,0.2L54.1,50.3z"/>
		<path fill="#3A8DDE" d="M52.2,50.6c0.1-0.2,0.3-0.9,0.5-0.7c0.2,0.2,0.4,0,0.4,0s0.1,0.1,0.1,0.3c-0.1,0.2-0.1,0.5-0.3,0.5
			c-0.1,0-0.3,0.1-0.4,0.1C52.3,51,52.2,50.6,52.2,50.6"/>
	</g>
	<rect x="82.4" y="129" fill="#3A8DDE" width="3.9" height="19.7"/>
	<rect x="18.2" y="129" fill="#3A8DDE" width="3.9" height="19.7"/>
	<polygon fill="#3A8DDE" points="76.1,144.8 73.3,144.8 73.3,133 69.3,133 69.3,144.8 66.5,144.8 66.5,148.7 69.3,148.7 73.3,148.7 
		76.1,148.7 80,148.7 80,144.8 80,129 76.1,129 	"/>
	<path fill="#3A8DDE" d="M30.7,144.8h-2v-7.9h2V144.8z M39.4,129v3.9v11.8h-4.8v-7.9V133h-3.9h-2h-3.9v3.9v7.9v3.9h3.9h2v6.1h3.9v-6.1
		h4.8h3.9h4.8h3.9h2H58h2h3.9v-3.9v-7.9h-3.9v7.9h-2v-7.9H54v7.9h-2v-7.9h-3.9v7.9h-4.8V133h20.5V129H43.3H39.4z"/>
	<polygon fill="#3A8DDE" points="18.2,161.4 28,161.4 28,165.2 22.3,165.2 22.3,171.5 27.2,171.5 27.2,175.2 22.3,175.2 22.3,182.1 
		28.3,182.1 28.3,185.9 18.2,185.9 	"/>
	<g>
		<path fill="#3A8DDE" d="M36.4,170.3l2.5,3c2.2,2,3.1,4.4,3.1,7.2c0,2.8-1.5,5.8-5.9,5.8c-3,0-5.8-1.8-5.8-5.4v-3.1h4v2.5
			c0,0.9,0.2,2.4,1.8,2.4c1.2,0,1.8-0.9,1.8-2.3c0-1.7-0.7-3-2-4.3l-2.9-3.3c-1.4-1.3-2.6-3.1-2.6-6.3c0-3.7,2.1-5.6,5.6-5.6
			c2.8,0,5.7,1,5.7,5.4v2.8H38v-2.2c0-1.6-0.5-2.6-1.8-2.6c-1.2,0-1.8,0.7-1.8,2C34.4,167.3,34.6,168.6,36.4,170.3"/>
		<path fill="#3A8DDE" d="M55.7,180.4c0,3.7-2.1,5.9-5.7,5.9c-3.5,0-5.7-2.2-5.7-5.8v-13.6c0-3.7,2.2-5.9,5.7-5.9
			c3.6,0,5.7,2.2,5.7,5.8v3.5h-4.1v-4c0-1.1-0.5-1.8-1.6-1.8c-1.1,0-1.6,0.7-1.6,1.8V181c0,1.1,0.5,1.8,1.6,1.8
			c1.1,0,1.6-0.7,1.6-1.8v-4.8h4.1V180.4z"/>
	</g>
	<polygon fill="#3A8DDE" points="57.5,161.4 61.6,161.4 63.6,179.5 63.7,179.5 65.6,161.4 69.5,161.4 71.3,179.5 71.4,179.5 
		73.4,161.4 77.5,161.4 73.7,185.9 69.3,185.9 67.5,169.3 67.4,169.3 65.5,185.9 61.1,185.9 	"/>
	<path fill="#3A8DDE" d="M84.8,177.6l-1.3-13h-0.1l-1.4,13H84.8z M81,185.9h-4.2l3.8-24.4h5.6l3.8,24.4h-4.3l-0.5-4.8h-3.7L81,185.9z"
		/>
	<g>
		<path fill="#3A8DDE" d="M9.5,107.4v5.3c0,2,0.9,2.8,2.1,2.8c1.3,0,2.2-0.9,2.2-2.8v-5.3H15v5.2c0,2.8-1.4,3.9-3.4,3.9
			c-1.8,0-3.2-1-3.2-3.8v-5.3H9.5z"/>
		<path fill="#3A8DDE" d="M16.8,116.3v-9h1.3l2.9,4.5c0.7,1,1.2,2,1.6,2.9l0,0c-0.1-1.2-0.1-2.3-0.1-3.7v-3.7h1.1v9h-1.2l-2.8-4.5
			c-0.6-1-1.2-2-1.7-3l0,0c0.1,1.1,0.1,2.2,0.1,3.7v3.8H16.8z"/>
	</g>
	<rect x="25.4" y="107.4" fill="#3A8DDE" width="1.2" height="9"/>
	<polygon fill="#3A8DDE" points="30.2,108.4 27.5,108.4 27.5,107.4 34.1,107.4 34.1,108.4 31.3,108.4 31.3,116.3 30.2,116.3 	"/>
	<polygon fill="#3A8DDE" points="39.6,112.1 36.1,112.1 36.1,115.4 40,115.4 40,116.3 34.9,116.3 34.9,107.4 39.8,107.4 39.8,108.3 
		36.1,108.3 36.1,111.2 39.6,111.2 	"/>
	<g>
		<path fill="#3A8DDE" d="M42.5,115.4c0.3,0,0.7,0.1,1.2,0.1c2.5,0,3.8-1.4,3.8-3.8c0-2.1-1.2-3.5-3.6-3.5c-0.6,0-1,0.1-1.4,0.1V115.4z
			 M41.3,107.5c0.7-0.1,1.5-0.2,2.5-0.2c1.7,0,2.8,0.4,3.6,1.1c0.8,0.7,1.3,1.8,1.3,3.2c0,1.5-0.5,2.7-1.3,3.5
			c-0.9,0.8-2.2,1.3-4,1.3c-0.8,0-1.5,0-2.1-0.1V107.5z"/>
		<path fill="#3A8DDE" d="M52.7,116.3v-9H54l2.9,4.5c0.7,1,1.2,2,1.6,2.9l0,0c-0.1-1.2-0.1-2.3-0.1-3.7v-3.7h1.1v9h-1.2l-2.8-4.5
			c-0.6-1-1.2-2-1.7-3l0,0c0.1,1.1,0.1,2.2,0.1,3.7v3.8H52.7z"/>
		<path fill="#3A8DDE" d="M65.7,112.6l-0.9-2.6c-0.2-0.6-0.3-1.1-0.5-1.6h0c-0.1,0.5-0.3,1.1-0.5,1.6l-0.9,2.6H65.7z M62.8,113.5
			l-0.9,2.8h-1.2l3.1-9h1.4l3.1,9h-1.2l-1-2.8H62.8z"/>
	</g>
	<polygon fill="#3A8DDE" points="70,108.4 67.3,108.4 67.3,107.4 73.9,107.4 73.9,108.4 71.2,108.4 71.2,116.3 70,116.3 	"/>
	<rect x="74.8" y="107.4" fill="#3A8DDE" width="1.2" height="9"/>
	<g>
		<path fill="#3A8DDE" d="M78.5,111.9c0,1.9,1,3.6,2.9,3.6c1.8,0,2.9-1.7,2.9-3.7c0-1.8-0.9-3.7-2.9-3.7
			C79.5,108.2,78.5,109.9,78.5,111.9 M85.5,111.8c0,3.1-1.9,4.7-4.2,4.7c-2.4,0-4-1.8-4-4.6c0-2.8,1.8-4.7,4.1-4.7
			C83.9,107.2,85.5,109.1,85.5,111.8"/>
		<path fill="#3A8DDE" d="M86.9,116.3v-9h1.3l2.9,4.5c0.7,1,1.2,2,1.6,2.9l0,0c-0.1-1.2-0.1-2.3-0.1-3.7v-3.7h1.1v9h-1.2l-2.8-4.5
			c-0.6-1-1.2-2-1.7-3l0,0c0.1,1.1,0.1,2.2,0.1,3.7v3.8H86.9z"/>
		<path fill="#3A8DDE" d="M95.3,114.9c0.5,0.3,1.3,0.6,2.1,0.6c1.2,0,1.9-0.6,1.9-1.5c0-0.8-0.5-1.3-1.7-1.8c-1.5-0.5-2.4-1.3-2.4-2.6
			c0-1.4,1.2-2.4,2.9-2.4c0.9,0,1.6,0.2,2,0.4l-0.3,0.9c-0.3-0.2-0.9-0.4-1.7-0.4c-1.2,0-1.7,0.7-1.7,1.3c0,0.8,0.5,1.2,1.8,1.7
			c1.5,0.6,2.3,1.3,2.3,2.6c0,1.4-1,2.6-3.1,2.6c-0.9,0-1.8-0.3-2.3-0.6L95.3,114.9z"/>
		<path fill="#1995D3" d="M417.7,74.6h-4c-0.8,0-1.4-0.6-1.4-1.4v-4c0-0.8,0.6-1.4,1.4-1.4h4c0.8,0,1.4,0.6,1.4,1.4v4
			C419.2,74,418.5,74.6,417.7,74.6"/>
		<path class="st3" d="M432.4,52.4h-5.2c-0.8,0-1.5-0.6-1.5-1.5v-5.2c0-0.8,0.6-1.5,1.5-1.5h5.2c0.8,0,1.5,0.6,1.5,1.5V51
			C433.8,51.8,433.2,52.4,432.4,52.4"/>
		<path class="st4" d="M452.6,35.4H447c-0.8,0-1.5-0.7-1.5-1.5v-5.7c0-0.8,0.7-1.5,1.5-1.5h5.7c0.8,0,1.5,0.7,1.5,1.5V34
			C454.1,34.8,453.5,35.4,452.6,35.4"/>
		<path class="st5" d="M478.6,26.2h-6.1c-0.8,0-1.5-0.7-1.5-1.5v-6.1c0-0.8,0.7-1.5,1.5-1.5h6.1c0.8,0,1.5,0.7,1.5,1.5v6.1
			C480.1,25.5,479.4,26.2,478.6,26.2"/>
		<path class="st6" d="M504.8,27.1h-7.1c-0.8,0-1.5-0.7-1.5-1.5v-7.1c0-0.8,0.7-1.5,1.5-1.5h7.1c0.8,0,1.5,0.7,1.5,1.5v7.1
			C506.3,26.5,505.6,27.1,504.8,27.1"/>
		<path class="st7" d="M529,38h-8.2c-0.8,0-1.5-0.7-1.5-1.5v-8.2c0-0.8,0.7-1.5,1.5-1.5h8.2c0.8,0,1.5,0.7,1.5,1.5v8.2
			C530.5,37.3,529.8,38,529,38"/>
		<path class="st8" d="M549,56.5H539c-0.8,0-1.5-0.7-1.5-1.5v-9.9c0-0.8,0.7-1.5,1.5-1.5h9.9c0.8,0,1.5,0.7,1.5,1.5V55
			C550.5,55.8,549.8,56.5,549,56.5"/>
		<path class="st9" d="M561,78h-11.3c-0.8,0-1.5-0.7-1.5-1.5V65.2c0-0.8,0.7-1.5,1.5-1.5H561c0.8,0,1.5,0.7,1.5,1.5v11.3
			C562.5,77.3,561.8,78,561,78"/>
		<path class="st10" d="M567.5,103.2h-11.3c-0.8,0-1.5-0.7-1.5-1.5V90.4c0-0.8,0.7-1.5,1.5-1.5h11.3c0.8,0,1.5,0.7,1.5,1.5v11.3
			C569,102.5,568.3,103.2,567.5,103.2"/>
		<path class="st11" d="M562.1,128.5h-11.3c-0.8,0-1.5-0.7-1.5-1.5v-11.3c0-0.8,0.7-1.5,1.5-1.5h11.3c0.8,0,1.5,0.7,1.5,1.5V127
			C563.6,127.8,563,128.5,562.1,128.5"/>
		<path class="st12" d="M549.8,147.7h-9.9c-0.8,0-1.5-0.7-1.5-1.5v-9.9c0-0.8,0.7-1.5,1.5-1.5h9.9c0.8,0,1.5,0.7,1.5,1.5v9.9
			C551.3,147.1,550.7,147.7,549.8,147.7"/>
		<path class="st13" d="M530.2,165.7H522c-0.8,0-1.5-0.7-1.5-1.5v-8.2c0-0.8,0.7-1.5,1.5-1.5h8.2c0.8,0,1.5,0.7,1.5,1.5v8.2
			C531.7,165.1,531,165.7,530.2,165.7"/>
		<path class="st14" d="M505.3,175.5h-7.1c-0.8,0-1.5-0.7-1.5-1.5V167c0-0.8,0.7-1.5,1.5-1.5h7.1c0.8,0,1.5,0.7,1.5,1.5v7.1
			C506.8,174.9,506.2,175.5,505.3,175.5"/>
		<path class="st15" d="M477.6,175.5h-6.1c-0.8,0-1.5-0.7-1.5-1.5v-6.1c0-0.8,0.7-1.5,1.5-1.5h6.1c0.8,0,1.5,0.7,1.5,1.5v6.1
			C479,174.9,478.4,175.5,477.6,175.5"/>
		<path class="st16" d="M452.6,165.7H447c-0.8,0-1.5-0.7-1.5-1.5v-5.7c0-0.8,0.7-1.5,1.5-1.5h5.7c0.8,0,1.5,0.7,1.5,1.5v5.7
			C454.1,165,453.4,165.7,452.6,165.7"/>
		<path class="st17" d="M432.6,148.3h-5.2c-0.8,0-1.5-0.6-1.5-1.5v-5.2c0-0.8,0.6-1.5,1.5-1.5h5.2c0.8,0,1.5,0.6,1.5,1.5v5.2
			C434,147.7,433.4,148.3,432.6,148.3"/>
		<path class="st18" d="M417.7,125.7h-4c-0.8,0-1.4-0.6-1.4-1.4v-4c0-0.8,0.6-1.4,1.4-1.4h4c0.8,0,1.4,0.6,1.4,1.4v4
			C419.2,125,418.5,125.7,417.7,125.7"/>
		<path class="st3" d="M462.8,86c0.9-1.5,1.9-2.9,3.2-4.1l-10.4-11.3c-2.6,2.5-4.8,5.4-6.6,8.6L462.8,86z"/>
		<path class="st7" d="M489,77.8c1.6,0.7,3,1.6,4.3,2.7l10.3-11.4c-2.7-2.4-5.8-4.3-9.2-5.7L489,77.8z"/>
		<path class="st9" d="M513.1,81.5l-13.8,6.9c0.7,1.5,1.1,3.2,1.4,4.9l15.3-1.5C515.5,88.1,514.5,84.7,513.1,81.5"/>
		<path class="st8" d="M498.2,86.2l13.8-6.9c-1.7-3.2-3.9-6-6.4-8.5l-10.4,11.4C496.3,83.4,497.4,84.8,498.2,86.2"/>
		<path class="st18" d="M460,96.5c0-0.3,0-0.6,0-0.9l-15.4-1.3c0,0.8-0.1,1.5-0.1,2.3c0,2.9,0.4,5.8,1.1,8.5l14.8-4.2
			C460.2,99.4,460,97.9,460,96.5"/>
		<path class="st12" d="M496.3,109.4c-1.1,1.3-2.3,2.5-3.7,3.5l8.1,13.1c3-2,5.7-4.5,7.9-7.4L496.3,109.4z"/>
		<path class="st10" d="M500.9,96.4c0,1.4-0.2,2.8-0.4,4.2l14.8,4.2c0.7-2.7,1-5.5,1-8.4c0-0.7,0-1.4-0.1-2.1l-15.4,1.5
			C500.9,95.9,500.9,96.2,500.9,96.4"/>
		<path class="st16" d="M465,109.7l-12.2,9.4c2.3,2.8,5,5.3,8,7.3l8.1-13.1C467.4,112.1,466.1,111,465,109.7"/>
		<path fill="#1995D3" d="M460.3,93.1c0.3-1.7,0.8-3.4,1.5-4.9l-13.8-6.8c-1.5,3.2-2.6,6.7-3,10.4L460.3,93.1z"/>
		<path class="st13" d="M498.6,127.3l-8.1-13.1c-1.5,0.8-3,1.5-4.7,1.9l2.9,15.1C492.2,130.5,495.6,129.1,498.6,127.3"/>
		<path class="st11" d="M499.8,103c-0.5,1.6-1.3,3-2.1,4.4l12.3,9.2c2-2.9,3.6-6,4.6-9.4L499.8,103z"/>
		<path class="st14" d="M483.3,116.6c-0.9,0.1-1.9,0.2-2.8,0.2c-0.8,0-1.5,0-2.3-0.1l-2.8,15.2c1.7,0.2,3.4,0.4,5.1,0.4
			c1.9,0,3.8-0.2,5.7-0.5L483.3,116.6z"/>
		<path class="st19" d="M481.8,76c1.7,0.1,3.3,0.4,4.9,0.9l5.5-14.4c-3.3-1.2-6.7-1.8-10.4-2L481.8,76z"/>
		<path class="st15" d="M475.7,116.3c-1.7-0.4-3.3-1-4.9-1.8l-8,13.1c3.1,1.8,6.5,3.1,10.1,3.9L475.7,116.3z"/>
		<path class="st5" d="M474.3,76.9c1.6-0.5,3.3-0.8,5-0.9l0-15.4c-3.7,0.1-7.2,0.8-10.5,2L474.3,76.9z"/>
		<path class="st17" d="M463.5,107.8c-1-1.4-1.8-3-2.4-4.7l-14.8,4.3c1.1,3.5,2.8,6.8,4.9,9.7L463.5,107.8z"/>
		<path class="st4" d="M467.8,80.3c1.3-1,2.7-1.9,4.2-2.6l-5.6-14.3c-3.3,1.4-6.3,3.3-9,5.6L467.8,80.3z"/>
	</g>
</g>
</svg>
